<mxfile host="app.diagrams.net" modified="2022-01-05T17:44:47.477Z" agent="5.0 (Windows NT 10.0; Win64; x64) AppleWebKit/537.36 (KHTML, like Gecko) Chrome/96.0.4664.110 Safari/537.36" etag="q-1Fom_kkP_0lhk2RdHH" version="16.1.2" type="github">
  <diagram id="xmwD8txHIXB0alc75M6F" name="Page-1">
    <mxGraphModel dx="864" dy="1510" grid="1" gridSize="10" guides="1" tooltips="1" connect="1" arrows="1" fold="1" page="1" pageScale="1" pageWidth="850" pageHeight="1100" math="0" shadow="0">
      <root>
        <mxCell id="0" />
        <mxCell id="1" parent="0" />
        <mxCell id="iSHoY0e52lTv-vvgOU3p-18" value="" style="shape=image;verticalLabelPosition=bottom;labelBackgroundColor=default;verticalAlign=top;aspect=fixed;imageAspect=0;image=data:image/png,iVBORw0KGgoAAAANSUhEUgAAA3MAAAIzCAMAAACduLCQAAAAAXNSR0IB2cksfwAAAAlwSFlzAAAOxAAADsQBlSsOGwAAAkZQTFRF////1NTUf39/gICAv7+/n5+fr6+vz8/Pj4+P39/fkJCQwMDAqKiogYGBqqqqAAAAPz8/X19fYGBg7+/vDw8PEBAQT09PU1NTb29vLy8vQEBAICAgHx8fMDAwoKCg3d3d6Ojo8vLy+vr6/f39/v7+/Pz8+fn59vb28PDw6enp5ubm5OTk4uLi4eHhGxsbcHBwcXFxODg4jY2NKysr09PTDg4OOTk5R0dHxcXFHBwcbm5ukZGRNDQ0x8fHDAwMhISEampqQkJCRUVFGhoasLCwWlpaNjY2XFxcVlZWMTExrKysISEhFBQUmZmZ/7ZmAABmtv////+2ZgAAZrb/ZgA6kNv/25A6AGa2///bkDoAADqQ29uQOgBmOpDb2////9uQtmYAOgAA9fX1mpqa5+fn5eXlwcHBUFBQ+/v7+Pj4Oma2ttuQAAA6kLaQOgA6OjoAADo6ZmZmkJA6ZpCQZgBmtv+2OjqQtv/bkDpm2//bkDo62/+2///+Ojo6/v///P///Pr22e3///vyoaHK4v//EhIS4ODga2trdHR0CgoK8PDwHR0d9/f34+Pj////BwcHiIiI2trazs7OCQkJnZ2d1tbW7u7u29vb6urqu7u7AGaQBgYGMzMzW1tb9PT0ubm5bGxsERERvr6+jo6OCAgIo6OjFxcXLS0tHh4ePj4+8/PzIiIiCwsL//78//37//797P//+P//5d3r0///+vf36fL5+vTt7e3t7vL4//348u7u8ff8//35+ff6///9/Pfw8/j9UlJSfO0ESwAAAMJ0Uk5T/////////////////////////////////////////////////////////////////////////////////////////////////////////////////////////////////////////////////////////////////////////////////////////v////7///////////////////////////////////////////////////////////////////+L/NlhAAAmGUlEQVR4nO2diYMkyVWfc6qrOiunLEXWZFXR1V09wO7sCmGttcIYjCxLGBoBQu6d2dVc693tWRmsFVqEZcuSLcuSLxAC2dwLGAvb4APEjQ98gMH/mSMis67ujOrIqswX71X+Pmm7s/Oo9+JlfhN5VxStcCMCANSEl05wDoDagHMA0ALnAKAFzgFAC5wDgBY4BwAtcA4AWuAcALTAOQBogXMA0ALnAKAFzgFAC5wDgBY4BwAtcA4AWuAcALTAOQBogXMA0ALnAKAFzgFAC5wDgBY4BwAtcA4AWuAcALTAOVZ0Dgq6ZVO7B71i6PDgIM6H+gcH5ldysEZvZRnDzUEyD3D5k/VHJfPh3sHB4WLQzvgX3vb2XdsELgHnWKHmdMqmdlSaD/SUGuZDiZ7XaNJVa6QryxTcyvIAlz95tDIqVWqczAft2In6uloaBpbAOVZolzqW0n5u7tyRUkfFKD1o9UvyxbRt9ndvZRllRkyVOs4DXHLuUH/AyfyPVC1khnONAedYoVSpbAWFc0OlFk6NlJYqW1n+cjemJ9vffaX6ZTNM1NFIzXcoU6V7vaQYhHMNAedY4ePcqnKHahTNln9ucE7PNiyZIdOODed9mxYtTYs/4FxjwDlWeDi3qpzppXQPdrqyvNO51Ap7eYa+mkbxoqfU8+gDwzgfhHMNAedYodTBwcHtgWOqdi47VqOlcokRJCksyZev6NzM7HEuekozzyQ/8INzjQHnWFGcYzwt7+06anqqRvFyhOml8s5usbzLuSSfdGmGvIvrzHtK41yS97VwrjHgHCvUtNPpTJRjF9Oe91+dYnupqKfGi+Vdzh2e5LJemmGoJlG07CnTfOf1OIJzDQLnWJGfM0ym6iQrmdoxpxVPl1Pi/CRjtjzxWOpcQe/qDNk4XzItekrrXGKv+MG5xoBzHInVwqJV9PFcb1W6vJda/nY7N0uHSckMPTUqfuc9ZX7Md2Qu2MG5xnDqdANYvv4bvvGpp+/cifT/7jzz7Du+6Z3f/Bff9a7nntP/2f+v/rcYfM7953PrM6/8+dzqzH9JvfvqJz/3vHrPu75Fqb/8rfnYG39Ffdvzhm9X6q/mo5R6/lLc55Va/dPMsPzzPeo7nn/+3e9971Cpv2Ya+z71Pv3zr79ffUAPfqcZ8zfUdwUtf5vwE5OIXeNvs3zYNqeLS2aGeS72WsGyp+ut3OzVz+fYcN6yZIZk5QMmedg0X+Zkl34u9OZyHSE2p8rLhy5i+5wbrbmz5txSurS40cucdSlu36rmXEfNig8Y5keGhXP6ALEP58IuH7qIrXPucP305Lpzc+mS5UHf4sRjNedmyz++2/aUhXN6ofEUzgVdPnQRW+Nc58z+6o3tdbco+h71wdVc5vc459LpXmqx4LTYF63k3OH83krN99qecu6ctlHBuaDLhy5ia5xL1fj4+PhEqVEuw/ep71/NZfVZntNstrwUHvXV2PGozhXnFkTDwmzDh2xPma4EgHNBlw9dxNY415nlOhwVlwNczhknfmDlli9zq3LJ5bd8GZdz2eLMiwlhb4FeOGc6OjgXcvnQRWyNc/rIrNvtJpdHEuRSZ4jQm8t1wDmC+IKcKwXO1QqcI4gP50hDcCpdGXCOID6cIw3BqXRlwDmC+HCONASn0pUB5wjiwznSEJxKVwacI4gP50hDcCpdGXCOID6cIw3BqXRlwDmC+HCONASn0pUB5wjiwznSEJxKVwacI4gP50hDcCpdGXCOID6cIw3BqXRlwDmC+HCONASn0pUB5wjiwznSEJxKVwacI4gP50hDcCpdGWydW30hkQIA1IbPe7+Uw0sqdo2/zfKh27wKp1w84J5uiM2p8vKhi9h25z4cOoFqcCpdGXCOIL505/5m6ASqwal0ZcA5gvjSnRMG99LBOYL4cI4U7qWDcwTx4Rwp3EsH5wjiwzlSuJcOzhHEh3OkcC8dnCOID+dI4V46ts6t3YeyY5Bd2fnCf/nHnttpL9wtj9lge/Yc7qVraHPK2bhRFfHbex/KvRdfajBmi+Feuib7uc0bVYX4oYvYkHMfud9gzBbDvXSNOrdxo6oQP3QRGyrSg4cNxmwx3EvX6PHcxo2qQvzQRWxq3xLHc43AvXTN7lt6HM/tGoQCnLcUBffSsT1vWWeQXYFzouBeOjhHEN+x/KPH6uW/9YpjLyB0mwXDvXSNOrNxo6oQP3QRmynSo8evnr/82oOXX2skZovhXromndu8UVWIH7qIjV0r0OW5cPybFLrNguFeuoavFWzYqK5Zfv/vQ8n/SXqCfq5uuJeumc0pZ/NGVcRv730oZtdbKVd1QrdZMNxL1/TxnHujqhA/dBFx3lIU3EuH85YE8eEcKdxLB+cI4sM5UriXDs4RxHfd+7Vptzt0mwXDvXTN3vu1+VjOO37oIjZVpIvXlXq1oZhB6HRDZ2DYunQf/ds/qNuQ1JlLGc32U5s2qgrxQ29/TRbpgZx7nFVH/4jH06xkWq+7mCM4fqXrKKXGx7dXR/2Q+jt66cb/3Wh+39C1UVWIH3r7Qz9nMUbF42GZclFqbes23kf44Otct9sdqt7KqL1wDv3chuXFHc9p57rjoRlKzm4PzO9sEMVnZig+vTUYZNa5OIm6Z0Hd83XO/JymkWnGzYH5l2TpXDwwY23TojiOurdj8vy2W36n47n9vw/lmpi1t2JnVKenrHJ9laajU72VdlVnlKqPRdHRaJamse0J06OT6Wx8GDJPr7kK5yZaKjVNZyfxinM93f3Fp7ppx7qR6fR0Nl3rD3fNL8DmtBa/pfeh3PvIfXHPrKrTXLko1ltiNj0yzg3Nj3i+b2mdMxvt5CRknl5zddTBwcHxSOeemV55crx07siMTfVxazw6Mg3Svh2NqfPbYvlrN6oK8UNvf7g+Z1FqvNjFige3UqOb2SWzpi2d0z2H7ihCJRn5O5fq3vpj+dFpMripFs4NZ7Fpmumqj5SRLyr+YSHNL/Dyobc/OGdRR9NcuvjY/Fs6Nlui+TNdd84MdSU4p39kqe6Qs1vFHlvu3HhsPMz/OTE/09QO1HdqBc4RxC/bt3xxvnMuaN+yk+XSpZMs32bFO6c75DjqzJI849y5/uhWZP42e5yHpp8T49y1G1WF+KG3v4aKZF/R9MRxXjd0m0vQRuXS2RMKk71wrqPVshl3lvuWsZEuto0cjiQ5Z9i4UVWIH3r7a+hagX0VoaBnVo1RVrqZPgrqqzXnJsfmWoEs5waDwe1xak74JFF3tHQustJNTuPocNwR5tzmjapC/NDbXzNFevTY/pMk55lVe5eJkU5voCo9WnMuTpXeKmU5p5kd6b3kZKYH+ivORcn0NMsmerppiyjnNm9UFeKH3v4aKpJ9vND1CtDQbd5MzOKGEwfVS5eUn5Ss80L4Co3uW27cqCrED7394bylKLiXju15y/2/DwXfV9AQ3EvXzOaU4/V9BS29D8XwBN/L0wjcS9doP7dxo6oQP3QRm7rH2f6jJef6nBS4l67Ze5w3bVQV4ocuIo7nRMG9dGyP5+oMsitwThTcSwfnCOK7rxXg+woagHvpmr5WgO8rcC6P7ytoCO6la/aaOL6vYMPy+L6ChuBeuobv/dr++woqz9QgTfZzgu79kgL30jXfz+Her433fkn4voKnQydQDU6lK6P5e7+2/L6C/b8P5ZqYtbdie54KnUA1OJWujBCb01r8Ft+H0mjMOoFztYJrBQTxS5a3uwAWAfehPBs6gWpwKl0ZjTlz7UZVIX7oIjZRpPPNdQne5lXeCJ1ANTiVrozm+qnrNqoK8UMXsbH7LTcc64Zu8yofD51ANTiVroyG77e89qWyLXZO80TGu9Oxb1krDR+PbdioKsQPXcQGi3TvRRzP1Q2n0pXR+DkQ50ZVIX7oIjbZz7kedwrd5lVwPFcrzfdzm5+ha7FzF69v2gcI3eZVcDxXK006t3mjqhA/dBGbOW+55c0CAcC+Za00ed7y+m/lae99KLg+1xycSldGA5tTju/1OdyH0kzMOoFztYL7UAjiS3cO937VCpwjiA/nSOFUujLgHEF86c7hvGWtwDmC+NKdw/FcrcA5gvjSncO+Za3AOYL40p1DP1crcI4g/sYbBwS8gwj9XK007wzeQSS+n8M5lFph28/t+X0o18esvRXbA+dqJcTmtBYf96E0E7NOcDxXK81tTubmL3OLM/YtxTuHZ3lqpbnN6cnD/HuN4VzZ8sV3FikR9zhj37JWGnMu/8LH8xfuNurcxQ9HD67/krtdaaRIT2r40mcisG9ZKw07F51f8yUhWzn34OFC5CdeTwztSCNFevR448OFnDYcOFcrze5bah7gXXvij+ewb1krTZ5DKaSr3bmL1+dHQfao6NV8jB2XD6gXPpH/fvNHXrczmpeyzCfpgUunduy/Duf2hI8ZNDOu7/e13TlcE68Vttfn3DOdm1esnL9539jxkvHp1UKgJ2tfAmQHLz75o+Zw7/zvvrI8rrywHq7Mab+t68mnHub7e/oQdPHvRZUkvfNvbpmmwL5lrchz7tFje9JEi1IcEV3Mfbp45e4V5175e7b7+vurztlxl+a89+l/8Om75iD03ovm4y8+eb9qkr75N7hMU2DfslbYOue8D6WQRVux1GaDc5/4zGtaqE+sOffZf3h31Tmj2cVn/tHn7kfnL792XrIrvPONA9uwQ1HrBv1crQTZnFapfB/KeX6iUotyvjhlWexbPpwfzz2MFs591qhkznMuJunh84drlw2fvBo9yP//MDovOQ8aYiVy2nDgXK2Ezq/6vuUl554o9eb93Kere4zmh1bpyUsXa/3c3Uefu7/qnFbwyUvmg/Of2yVZM6FXzCo4h1IrofOr7lwhiz70Wh+yJ1RKnLv4zD/+9N1LzkUXP7zqnJ2lOKQr3bes3q6dCb1iVvF37k6DWXhzEDqBawi9ams4hzK3z5zKLHHu3kd+5DOvXXbOnlVZfuTn9CzFz/wcSv6zUpI1E3rFrFLxHMrnA5vHQvwNhF61O14reNU4+OZ997UC/eOJejW64lx+wWDOk39i7H3wKftTf/Kjx2t7mHCuMne+UH8a+0LoVbvNNXFzJTw3xr649uF8l/Leiw+LEyXqpRXniv5vMSmfee1SvTU4l9n8qvua+DaEXjGrCDue407oVduKe7+kxHTxTOgERPHF62YIvWrhHKOYLp4OnYAg/uk/u3aW0KsWzjGKCXbmn/+Lf3ntPKFXLZxjFBOQEHrVwjlGMQEJoVctnGMUE5AQetXCOUYxAQmhVy2cYxQTkBB61cI5RjEBCaFXLZxjFBOQEHrVVn9mNQBwDtRI6FXbinenS4kJSAi9arFvySgmICH0qoVzjGICEkKvWjjHKCYgIfSqhXOMYgISQq9aOMcoJiAh9KqFc4xiAhJCr1o4xygmICH0qoVzjGICEkKvWjjHKCYgIfSqFeHcjwWIGbrNoDFCr1oRzr09QMzQbQaNEXrVinAuBG1sc0sIvWrhnIM2trklhF61cM5BG9vcEkKvWjjnoI1tbgmhV62IZ1ZD0MY2t4TQq1bEM6shaGObW0LoVYt9SwdtbHNLCL1q4ZyDNra5JYRetXDOQRvb3BJCr1o456CNbW4JoVctnHPQxja3hNCrFs45aGObW0LoVQvnHLSxzS0h9KqFcw7a2OaWEHrVwjkHbWxzSwi9auGcgza2uSWEXrVwzkEb29wSQq9aOOegjW1uCaFXLZxz0MY2t4TQqxbOOWhjm1tC6FUL5xy0sc0tIfSqhXMO2tjmlhB61cI5B21sc0sIvWrhnIM2trklhF61cM5BG9vcEkKvWhHO/XiAmKHbLJhnQydwDaFXrQjnvj1AzNBtFsyXQidwDaFXrQjn8L08ouBeutD5wTlGMfcE7qULnR+cYxRzT+BeutD5wTlGMfcE7qULnR+cYxRzT+BeutD5wTlGMfcE7qULnR+cYxRzT+BeutD5wTlGMfcE7qULnR+cYxRzT+BeutD5wTlGMfcE7qULnR+cYxRzT+BeutD5wTlGMfcE7qULnR+cYxRzT+BeutD5wTlGMfcE7qULnR+cYxRzT+BeutD5wTlGMfcE7qULnR+cYxRzT+BeutD5wTlGMfcE7qULnR+cYxRzT+BeutD5wTlGMfcE7qULnR+cYxRzT+BeutD5wTlGMfcE7qULnR+cYxRzT+BeutD5wTlGMfcE7qULnR+cYxRzT+BeutD5wTlGMfcE7qULnR+cYxTTxQ+FTqAanEpXRuj84ByjmC4+GDqBanAqXRmh83PGv7GCCg1lRQpCN5mMb/atyMd/4suhc8358nd+3Cffn/wp1wfc+PFgXx30lX+ldbpRztqMbP9haJAb188C6OhUX+Rf159FPWDf0gGFc1tsSG3lp6svsmfOxcdx77j+ZLzjE0Dh3M8QxNgTfrb6IvvmXBr30vqT8Y5PAIVzXyGIAdix7b5lNh/odKPkaPv4H/i57eI3Do7nQENs51znRKnTnh3sjo5PelcXSQ4Sr/g//wvbxCcAzoGG2Mq56agfxx2Vd29JNy5ZpKu6XvHhHGgb2zjXy33q21/Z2VmWDPTvQZTc1vYlZ2e6h8tuqpuDgRkZn8VmpkG+MxrftgNJrIesqrlz3bP56O7tLLpCCOd+MUBM0Aq2cW5WnD6ZTbRE41k6mijTsfVV2ok6ajod96J4qqZpqkd2RlN1dDhO1aleIPuYSmcn2rVOOpxNbT9pnMuOR+nsNDGjp6NpSf8Ywrm3AsQErWAb51RxXUlLlXs3ss6luofqjbqmH0yKfcuuGpr+cJpFsdIHfUM9EA21fR3zEX09m3Uu1Utmk+Ni9LZJAiCDLZxL5mYMVaHWkZofwKVDM2HWWTiXmPn7ZopeSB3axWMtl/3YrnUuLmbVzs12SBIAGezYz3XtpI6KiiF1cqwZL52zI62NZtypmar/7KTz8dq5rjJjTxejt0wSABlsdTw3WfzuKnPKY+ncaNg1JA7n+nZqdtm5w7XRWyYJgAy2ca6j7ClHc/oyMYdpUbpwLp3fEVbmXGR3Mu0nrDqXf8Zy9JZJAiCD7a7Pjc+y5KY5PxINx2eDg9HCua46iKLMXAZQB4PBZec640NztfySc9HRuLs6esskAZDBVs5lR0qpUd5pHc3U8Gg0dy46nOlJM+1cXw9cdi7qjPTU6WXnso55qGnidu79WzQMAKb4PbN6dXKyeul6uOpK1i25qr1crvz2lHjjXSu/tGkiALLY9ZnV7pm556TkhksAQCm7PrPaGy32MgEAHoh4ThyAPQLOAUALnAOAlp2fEzd0D+pJBoAWsPNz4vZPdIQA+LL7c+IRnAOgArU8J26dywY3i4fBuzfts+GDWhMFYE/Y/TnxUf6ceKym6WxsXDuZpanWsYvOD4ASdn1OPJ1k+XPiiXnPl30GfKoHsgzOAVDKjs+Jx/bR72E+QzK4aR72PsnfsgfnQMO845dDZ7AVtT0nnt2yX3nSjZKZOn13Auf2iKdDJ+DgKa/v52FHbc+Jd2bJ4knVzgzHc/vEr4ROYL/Y8Tnx5b6lfftQf/4m2WkHzu0P3xI6gf1i1+fE09NEy6dnGOrDuO5IO9ePzdnMPpwDoJStnlldeU48myo1Nf2cGZiZfs5MM5fL4RwAZWz7zOryOfEkvjyw+aFvANoNnisAgBY4BwAtcA4AWuAcALTAOQBogXMA0ALnAKAFzgFAC5wDgBY4BwAtcA4AWkQ4dydwfABqRIRzbwscH4AaEeFc6PgA1AicA4CWbb9nlZTQ8QGokV2/Z5WE0PEBqBHsWwJAC5wDgBY4BwAtcA4AWuAcALTAOQBogXMA0ALnAKAFzgFAC5wDgBY4BwAtcA4AWuAcALTAObA79158NXQKgoBzANCCZ1aBHxev3DU/X3/J/FDqhbv5bzukp+XDtru7MhmsgWdWgR/WuYtP3o+ic6W9O3/zfqHhk5dfM86ZYbuPeXVy6NSZgX1L4Icx6N5HtHKPHr9k/n5gVcsnzJ2Lzl+4WzI5YNYcgXPAD+3OvRdfihYS6S7vqnNaypLJ4ZJmSfuce7bOD2sRF6989vFDM3Ce7yxqAYudx4fRwjndyZVMBmu0z7k72faLtvmF0hef/NF/89icI1mRan7exOHc8rQKWKF9zu32KvZnWqudOWNpT6EUO4vFbmR+IvPqvuXqZLBGG53bjbZKZ1168MLdy+dQijOUrnMoZjJYA84BP6xBj8whHa4V7AacA37Mr4k/NGoVF73z/ckXHy6uidsu7srkoHnzA84BcA136j15BucA2MidZ2r+QDgHwCbeqP0T4RwATj7+VAMfCucAcPDUOxr5WDgHAC1wDgBa8MwqALTgmVUAaMG+JQC0wDkAaIFzANAC5wCgBc4BQAucA4AWOAcALXAOAFrgHAC0wDkAaIFzANAC5wCgBc4BQAucK+E54nigVcC5Er7+K8QBQZuAc2U08eYZAHLgHAC0wDkAaIFzANAC5wCgBc4BQAucA4AWOAcALXAOAFrgHAC04N3pANCCd6cDQAv2LQGgBc4BQAucA4AWOAcALXAOAFrgHAC0wDkAaIFzANAC5wCgBc45eDpATNAK4JyDtwLErMKd0AmAbYFzDp4NELMib7yBzlgicE40H8WbOOUB56TzBvYyhQHn5APrZIFnVgGgBc+sAkAL9i0BoAXOAUALnAOAFjgHAC1wDgBa4BwAtMA5AGiBcwDQAucAoAXOOcBjMqAhRDj3qwFivitATNAKRDj3HQFi3rh+FgC2QYRz/zZATDgHGkKEc18NEHNPnbvzTOgMKnBnPx8MFOHcpwLE3FPnpPBr/+5Dg28KnURD+D2zqtT7/z1hUpf4hltfVnz4D7/umfVvcMp6zn/8T7v2Hd/adLN+9T//l69+6tbXfdtvfrjhQMGQ8MzqbwWIGbrNq3DKxYPd0/3a196oIQ+uiNi3/O0AMUO3eRVOuXggLF1yRDj3OwFifilATBeh618RYemSI8K50PFDI6z9wtIlB84JQFj7haVLDpwTgLD2C0uXHDgnAGHtF5YuOXBOAMLaLyxdcuCcAIS1X1i65MA5AQhrv7B0yYFzAhDWfmHpkgPnBCCs/cLSJQfOCUBY+4WlSw6cu0wyiOJ48Veve2UUPaHrXxFh6ZID56Koo07s75nq2L+iNF1MS6+Ooid0/SsiLF1y4JxRSple7HBknVsnvTqKntD1r4iwdMmBc8a5yVD/Gg6Nc3GiB7OBGR/fHljnFqOyQZacdZtNpozQ9a+IsHTJgXPGucOxFkp1jXO2Y+uaiD01nZ5OV0d11VBNJ80mU0bo+ldEWLrkwDl7uDbqRb1ZtOZcovpR1Ffrzs2yZlMpJ3T9KyIsXXLgnHXuaBLpHm1NsM7MTButO9drNhMHoetfEWHpkgPnrHOx3rFM1p3Lz1Sm684FOJiLwte/IsLSJQfOWeei6Vgfp605N4FzWyIsXXLgXO5c3+w2WucmxZjOODInVjqFfT0454uwdMmBc7lheRwtWH8cR92ROYcyuhVF9vJBXxWj4JwXwtIlB85dci5LlZr1zRitmRqa/cpsUoyCc14IS5ccOHeFZHFrpb0YbsjCuDYndP0rIixdcuCcAIS1X1i65MA5AQhrv7B0yYFzAhDWfmHpkgPnBCCs/cLSJQfOCUBY+4WlSw6cy1m7d7l70HzAKoSuf0WEpUsOnDN0TpQ6Xd6/3And4EswS+c6hKVLDpzTTEf9OO6oo/nfcG4nhKVLDpwzt1LaS959+ys7O8usc9ng5iDf4+zePIvnz44HIXT9KyIsXXLgXBTNivcLzSZRFI9H6WiiA8Zqms7GxrWTWZpqHbvhqhC6/hURli45cC6/zdJgnphLJ1kU21uczX1fw1O9oznVA1kG57yZhU6AOXAuSubODc2zq4f5gJ0wuGme6TnJ77qEc778YOgEmAPn1vq5XCxzPJfdUoZulMzU6bsTOAfqAs7lx3HF764yp03sI6uzZP7wTrczw/EcqA04ZxSzT++Y05fLfcvUvPKyP39gbtqBc6Am4FxkXoZyliU3lbEsPU20fDrgUB/GdUfauX5szmb24RyoCTinyY70kduobwenSk1NP2cGZqafM9PM5XI4B+oBzuUkixsuF4+JLwbisE+Jh68/qBU4J4C2t3/PgHMCaHv79ww4J4C2t3/PgHMCaHv79ww4J4C2t3/PgHMCaHv79ww4J4C2t3/PgHMCaHv79ww4J4C2t3/PgHMCaHv79ww4J4C2t3/PgHMCaHv79ww4J4C2t3/PgHMCaHv79ww4JwCB7V+8fr7X2zhfG4FzAuDT/vTU/prMsmtmXLwKO00bTUgicE4AfNqfjMw70g6v/151OOcGzgmAUfv7Ko6y8ZG27+zMvPczG0TJ7UH+ynk7Q3w2mL86Te9hJvYFhrftG0IXL6PvZou5i09pF3BOAJzan55mk6lxajod98xbYnqjVN2Kx+noJLNvBU1n427xitDTaRal09PZTJmDOjXTk8xr1VRfzz02rnVUaj+lXcA5AXBqfzY61l2d3bvsqUQ7l5rXys9072de4tQZaZWOxplxLjmdaAtT49tkrJc0kh2d6B9Kz5TNhvoDRrHuOcdt6+ngnABYtb9nXntt3/4ZzTrFW3ft14ilkyjKX56mx3VUPLbzpObrHvJX9UbJ4LZ5lah9b3ZHH+dN7beP5cu0CDgnAFbtt5apk2PNuFPYNLcoU6dmvOpr53Ll8nModpmjcf4y+shqapxbfEq7gHMOfi1ATBeh67+G9Wc07BqS4q2fS+c6xfiOGtpjt6Vz/VHXfB/LmnPzT2kXcM7BVwPEdBG6/mtY5ybHi7/Mz8Xe4mj+XbX6eK5nz5wsnBuagd6ac+nHyLPnAJxjFNMFp1xy57rqIIqy25f7uaivbprxsT1vaaVb9nPjJIpna84VnxJvjLd/wDlGMV1wymX+XUUzfWw2iy87p/cg9fhpkl+fM9ItnMtSpUbdNeeiw+JT2gWcYxTTBadcFmTd8vu/Esd4M8X/U/YZOMcopgtOuYCdgXOMYrrglAvYGV/nPt90ItfEb0VMF5xyATvj69zvNp3INfFbEdMFp1zAzvg693tNJ3JN/FbEdMEpF7Azvs79ftOJXBO/FTFdcMoF7AycYxTTBadcwM7gHAqjmC445QJ2BtcKlvxBgJhecMoF7AycW/KHAWJ6wSkXsDNwjlFMF5xyATsD5xjFdMEpF7AzcI5RTBeccgE7A+cYxXTBKRewM3COUUwXnHIBOwPnluC8JaAAzi3B9TlAAZxb8Ef/dZeY/+2/R9H/eOcfv/U/vxj9r//9x+98653/50/+9As1ZRa6/qBW4ByjmC445QJ2xte5/9t0ItfEb0VMF5xy8eBroRNgDp5ZJYz5Z3++3XLCnPt/oRNgDp7lYRTTBadcPBCWLjl4TpxRTBeccvFAWLrkYN+SUUwXnHLxQFi65OCZVUYxXXDKxQNh6ZKDawWMYrrglIsHwtIlB84xiumCUy4eCEuXHDjHKKYLTrl4ICxdcuAco5guOOXigbB0yYFzjGK64JSLB8LSJQfOMYrpglMuHghLlxw4xyimC065eCAsXXLgHKOYLjjl4oGwdMmBc4xiuuCUiwfC0iUHzjGK6YJTLh4IS5ccOMcopgtOuXggLF1y4ByjmC445eKBsHTJgXOMYrrglIsHwtIlB84xiumCUy4eCEuXHDjHKKYLTrl4ICxdcuAco5guOOXigbB0yYFzjGK64JSLB8LSJQfOMYrpglMuHghLlxw4xyimC065eCAsXXLgHKOYLjjl4oGwdMmBc4xiuuCUiwfC0iUHzjGK6YJTLh4IS5ccOMcopgtOuXggLF1y4ByjmC445eKBsHTJgXOMYrrglIsHwtIlB84xiumCUy4eCEuXHDjHKKYLTrl4ICxdcuAco5guOOXigbB0yYFzjGK64JSLB8LSJQfOMYrpglMuHghLlxw4xyimC065eCAsXXLgHKOYLjjl4oGwdMmBc4xiuuCUiwfC0iUHzjGK6YJTLh4IS5ccOMcopgtOuXggLF1y4ByjmC445eKBsHTJgXOMYrrglIsHwtIlB84xiumCUy4eCEuXHDjHKKYLTrl4ICxdcuAco5guOOXigbB0yYFzjGK64JSLB8LSJQfOMYrpglMuHghLlxw4xyimC065eCAsXXLgHKOYLjjl4oGwdMmBc4xiuuCUiwfC0iUHzjGK6YJTLh4IS5ccOMcopgtOuXggLF1y4ByjmC445eKBsHTJgXOMYrrglIsHwtIlB84xiumCUy4eCEuXHDjHKKYLTrl4ICxdcuAco5guOOXigbB0yYFzjGK64JSLB8LSJQfOMYrpglMuHghLlxw4xyimC065eCAsXXLgHKOYLjjl4oGwdMmBc4xiuuCUiwfC0iUHzjGK6YJTLh4IS5ccOMcopgtOuXggLF1y4ByjmC445eKBsHTJgXOMYrrglIsHwtIlB84xiumCUy4eCEuXHDjHKKYLTrl4ICxdcuAco5guOOXigbB0yYFzjGK64JSLB8LSJQfOMYrpglMuHghLlxw4xyimC065eCAsXXLgHKOYLjjl4oGwdMmBc4xiuuCUiwfC0iUHzjGK6YJTLh4IS5ccOMcopgtOuXggLF1y4ByjmC445eKBsHTJgXOMYrrglIsHwtIlx1mfGysoAEBt3Chn3b/G1d/MrvG3WT50m1chyKXOEJxKV0aIzany8qGLCOdEheBUujLgHEF8OEcaglPpyoBzBPHhHGkITqUrA84RxIdzpCE4la4MOEcQH86RhuBUujLgHEF8OEcaglPpyoBzBPHhHGkITqUrA84RxIdzpCE4la4MOEcQH86RhuBUujLgHEF8OEcaglPpyoBzBPHhHGkITqUrA84RxIdzpCE4la4MOEcQH86RhuBUujLgHEF8OEcaglPpyoBzBPHhHGkITqUrg61zjufqAADNUKvYu4J+TlQITqUrg20/V2eQXYFzokJwKl0ZcI4gPpwjDcGpdGXAOYL4cI40BKfSlQHnCOLDOdIQnEpXBpwjiA/nSENwKl0ZXJ37/1tnnDtXNXAlAAAAAElFTkSuQmCC;align=right;" parent="1" vertex="1">
          <mxGeometry x="179.99999999999997" y="-990" width="883" height="563" as="geometry" />
        </mxCell>
        <mxCell id="iSHoY0e52lTv-vvgOU3p-25" value="" style="shape=image;html=1;verticalAlign=top;verticalLabelPosition=bottom;labelBackgroundColor=#ffffff;imageAspect=0;aspect=fixed;image=https://cdn2.iconfinder.com/data/icons/freecns-cumulus/16/519970-033_PrinterText-128.png" parent="1" vertex="1">
          <mxGeometry x="200" y="-580" width="30" height="30" as="geometry" />
        </mxCell>
        <mxCell id="iSHoY0e52lTv-vvgOU3p-26" value="" style="verticalLabelPosition=bottom;html=1;verticalAlign=top;align=center;shape=mxgraph.floorplan.table;rotation=-90;" parent="1" vertex="1">
          <mxGeometry x="210" y="-680" width="90" height="50" as="geometry" />
        </mxCell>
        <mxCell id="iSHoY0e52lTv-vvgOU3p-28" value="" style="shape=image;html=1;verticalAlign=top;verticalLabelPosition=bottom;labelBackgroundColor=#ffffff;imageAspect=0;aspect=fixed;image=https://cdn2.iconfinder.com/data/icons/freecns-cumulus/16/519970-033_PrinterText-128.png" parent="1" vertex="1">
          <mxGeometry x="330" y="-515" width="30" height="30" as="geometry" />
        </mxCell>
        <mxCell id="iSHoY0e52lTv-vvgOU3p-29" value="" style="shape=image;html=1;verticalAlign=top;verticalLabelPosition=bottom;labelBackgroundColor=#ffffff;imageAspect=0;aspect=fixed;image=https://cdn2.iconfinder.com/data/icons/bitsies/128/Couch-128.png" parent="1" vertex="1">
          <mxGeometry x="520" y="-620" width="50" height="50" as="geometry" />
        </mxCell>
        <mxCell id="iSHoY0e52lTv-vvgOU3p-30" value="" style="shape=image;html=1;verticalAlign=top;verticalLabelPosition=bottom;labelBackgroundColor=#ffffff;imageAspect=0;aspect=fixed;image=https://cdn2.iconfinder.com/data/icons/bitsies/128/Couch-128.png" parent="1" vertex="1">
          <mxGeometry x="520" y="-550" width="50" height="50" as="geometry" />
        </mxCell>
        <mxCell id="iSHoY0e52lTv-vvgOU3p-31" value="" style="ellipse;whiteSpace=wrap;html=1;aspect=fixed;" parent="1" vertex="1">
          <mxGeometry x="470" y="-580" width="40" height="40" as="geometry" />
        </mxCell>
        <mxCell id="iSHoY0e52lTv-vvgOU3p-32" value="" style="shape=process;whiteSpace=wrap;html=1;backgroundOutline=1;rotation=89;" parent="1" vertex="1">
          <mxGeometry x="562.41" y="-562.46" width="135.09" height="30" as="geometry" />
        </mxCell>
        <mxCell id="iSHoY0e52lTv-vvgOU3p-35" value="" style="shape=image;html=1;verticalAlign=top;verticalLabelPosition=bottom;labelBackgroundColor=#ffffff;imageAspect=0;aspect=fixed;image=https://cdn1.iconfinder.com/data/icons/blogger-4/33/39.png;rotation=90;" parent="1" vertex="1">
          <mxGeometry x="617" y="-598" width="23" height="23" as="geometry" />
        </mxCell>
        <mxCell id="iSHoY0e52lTv-vvgOU3p-36" value="" style="rounded=1;whiteSpace=wrap;html=1;rotation=90;" parent="1" vertex="1">
          <mxGeometry x="970" y="-620" width="45" height="25" as="geometry" />
        </mxCell>
        <mxCell id="iSHoY0e52lTv-vvgOU3p-37" value="" style="rounded=1;whiteSpace=wrap;html=1;rotation=90;" parent="1" vertex="1">
          <mxGeometry x="830" y="-620" width="45" height="25" as="geometry" />
        </mxCell>
        <mxCell id="iSHoY0e52lTv-vvgOU3p-38" value="" style="rounded=1;whiteSpace=wrap;html=1;rotation=90;" parent="1" vertex="1">
          <mxGeometry x="900" y="-620" width="45" height="25" as="geometry" />
        </mxCell>
        <mxCell id="iSHoY0e52lTv-vvgOU3p-41" value="" style="rounded=1;whiteSpace=wrap;html=1;rotation=90;" parent="1" vertex="1">
          <mxGeometry x="830" y="-540" width="45" height="25" as="geometry" />
        </mxCell>
        <mxCell id="iSHoY0e52lTv-vvgOU3p-42" value="" style="rounded=1;whiteSpace=wrap;html=1;rotation=90;" parent="1" vertex="1">
          <mxGeometry x="900" y="-540" width="45" height="25" as="geometry" />
        </mxCell>
        <mxCell id="iSHoY0e52lTv-vvgOU3p-43" value="" style="rounded=1;whiteSpace=wrap;html=1;rotation=90;" parent="1" vertex="1">
          <mxGeometry x="970" y="-540" width="45" height="25" as="geometry" />
        </mxCell>
        <mxCell id="iSHoY0e52lTv-vvgOU3p-44" value="" style="shape=process;whiteSpace=wrap;html=1;backgroundOutline=1;rotation=90;" parent="1" vertex="1">
          <mxGeometry x="426.22" y="-870.3" width="135.09" height="37.54" as="geometry" />
        </mxCell>
        <mxCell id="iSHoY0e52lTv-vvgOU3p-46" value="" style="shape=image;html=1;verticalAlign=top;verticalLabelPosition=bottom;labelBackgroundColor=#ffffff;imageAspect=0;aspect=fixed;image=https://cdn4.iconfinder.com/data/icons/food-and-equipment-solid/32/cup-128.png" parent="1" vertex="1">
          <mxGeometry x="475" y="-850" width="30" height="30" as="geometry" />
        </mxCell>
        <mxCell id="iSHoY0e52lTv-vvgOU3p-47" value="" style="ellipse;whiteSpace=wrap;html=1;aspect=fixed;" parent="1" vertex="1">
          <mxGeometry x="688.8" y="-925" width="38.8" height="38.8" as="geometry" />
        </mxCell>
        <mxCell id="iSHoY0e52lTv-vvgOU3p-48" value="" style="ellipse;whiteSpace=wrap;html=1;aspect=fixed;" parent="1" vertex="1">
          <mxGeometry x="590" y="-850" width="38.8" height="38.8" as="geometry" />
        </mxCell>
        <mxCell id="iSHoY0e52lTv-vvgOU3p-49" value="" style="ellipse;whiteSpace=wrap;html=1;aspect=fixed;" parent="1" vertex="1">
          <mxGeometry x="688.8" y="-845.3" width="40" height="40" as="geometry" />
        </mxCell>
        <mxCell id="iSHoY0e52lTv-vvgOU3p-64" value="" style="shape=table;html=1;whiteSpace=wrap;startSize=0;container=1;collapsible=0;childLayout=tableLayout;" parent="1" vertex="1">
          <mxGeometry x="750" y="-939.8" width="160" height="14.8" as="geometry" />
        </mxCell>
        <mxCell id="iSHoY0e52lTv-vvgOU3p-65" value="" style="shape=tableRow;horizontal=0;startSize=0;swimlaneHead=0;swimlaneBody=0;top=0;left=0;bottom=0;right=0;collapsible=0;dropTarget=0;fillColor=none;points=[[0,0.5],[1,0.5]];portConstraint=eastwest;" parent="iSHoY0e52lTv-vvgOU3p-64" vertex="1">
          <mxGeometry width="160" height="4" as="geometry" />
        </mxCell>
        <mxCell id="iSHoY0e52lTv-vvgOU3p-66" value="" style="shape=partialRectangle;html=1;whiteSpace=wrap;connectable=0;fillColor=none;top=0;left=0;bottom=0;right=0;overflow=hidden;" parent="iSHoY0e52lTv-vvgOU3p-65" vertex="1">
          <mxGeometry width="53" height="4" as="geometry">
            <mxRectangle width="53" height="4" as="alternateBounds" />
          </mxGeometry>
        </mxCell>
        <mxCell id="iSHoY0e52lTv-vvgOU3p-67" value="" style="shape=partialRectangle;html=1;whiteSpace=wrap;connectable=0;fillColor=none;top=0;left=0;bottom=0;right=0;overflow=hidden;" parent="iSHoY0e52lTv-vvgOU3p-65" vertex="1">
          <mxGeometry x="53" width="54" height="4" as="geometry">
            <mxRectangle width="54" height="4" as="alternateBounds" />
          </mxGeometry>
        </mxCell>
        <mxCell id="iSHoY0e52lTv-vvgOU3p-68" value="" style="shape=partialRectangle;html=1;whiteSpace=wrap;connectable=0;fillColor=none;top=0;left=0;bottom=0;right=0;overflow=hidden;" parent="iSHoY0e52lTv-vvgOU3p-65" vertex="1">
          <mxGeometry x="107" width="53" height="4" as="geometry">
            <mxRectangle width="53" height="4" as="alternateBounds" />
          </mxGeometry>
        </mxCell>
        <mxCell id="iSHoY0e52lTv-vvgOU3p-69" value="" style="shape=tableRow;horizontal=0;startSize=0;swimlaneHead=0;swimlaneBody=0;top=0;left=0;bottom=0;right=0;collapsible=0;dropTarget=0;fillColor=none;points=[[0,0.5],[1,0.5]];portConstraint=eastwest;" parent="iSHoY0e52lTv-vvgOU3p-64" vertex="1">
          <mxGeometry y="4" width="160" height="7" as="geometry" />
        </mxCell>
        <mxCell id="iSHoY0e52lTv-vvgOU3p-70" value="" style="shape=partialRectangle;html=1;whiteSpace=wrap;connectable=0;fillColor=none;top=0;left=0;bottom=0;right=0;overflow=hidden;" parent="iSHoY0e52lTv-vvgOU3p-69" vertex="1">
          <mxGeometry width="53" height="7" as="geometry">
            <mxRectangle width="53" height="7" as="alternateBounds" />
          </mxGeometry>
        </mxCell>
        <mxCell id="iSHoY0e52lTv-vvgOU3p-71" value="" style="shape=partialRectangle;html=1;whiteSpace=wrap;connectable=0;fillColor=none;top=0;left=0;bottom=0;right=0;overflow=hidden;" parent="iSHoY0e52lTv-vvgOU3p-69" vertex="1">
          <mxGeometry x="53" width="54" height="7" as="geometry">
            <mxRectangle width="54" height="7" as="alternateBounds" />
          </mxGeometry>
        </mxCell>
        <mxCell id="iSHoY0e52lTv-vvgOU3p-72" value="" style="shape=partialRectangle;html=1;whiteSpace=wrap;connectable=0;fillColor=none;top=0;left=0;bottom=0;right=0;overflow=hidden;" parent="iSHoY0e52lTv-vvgOU3p-69" vertex="1">
          <mxGeometry x="107" width="53" height="7" as="geometry">
            <mxRectangle width="53" height="7" as="alternateBounds" />
          </mxGeometry>
        </mxCell>
        <mxCell id="iSHoY0e52lTv-vvgOU3p-73" value="" style="shape=tableRow;horizontal=0;startSize=0;swimlaneHead=0;swimlaneBody=0;top=0;left=0;bottom=0;right=0;collapsible=0;dropTarget=0;fillColor=none;points=[[0,0.5],[1,0.5]];portConstraint=eastwest;" parent="iSHoY0e52lTv-vvgOU3p-64" vertex="1">
          <mxGeometry y="11" width="160" height="4" as="geometry" />
        </mxCell>
        <mxCell id="iSHoY0e52lTv-vvgOU3p-74" value="" style="shape=partialRectangle;html=1;whiteSpace=wrap;connectable=0;fillColor=none;top=0;left=0;bottom=0;right=0;overflow=hidden;" parent="iSHoY0e52lTv-vvgOU3p-73" vertex="1">
          <mxGeometry width="53" height="4" as="geometry">
            <mxRectangle width="53" height="4" as="alternateBounds" />
          </mxGeometry>
        </mxCell>
        <mxCell id="iSHoY0e52lTv-vvgOU3p-75" value="" style="shape=partialRectangle;html=1;whiteSpace=wrap;connectable=0;fillColor=none;top=0;left=0;bottom=0;right=0;overflow=hidden;" parent="iSHoY0e52lTv-vvgOU3p-73" vertex="1">
          <mxGeometry x="53" width="54" height="4" as="geometry">
            <mxRectangle width="54" height="4" as="alternateBounds" />
          </mxGeometry>
        </mxCell>
        <mxCell id="iSHoY0e52lTv-vvgOU3p-76" value="" style="shape=partialRectangle;html=1;whiteSpace=wrap;connectable=0;fillColor=none;top=0;left=0;bottom=0;right=0;overflow=hidden;pointerEvents=1;" parent="iSHoY0e52lTv-vvgOU3p-73" vertex="1">
          <mxGeometry x="107" width="53" height="4" as="geometry">
            <mxRectangle width="53" height="4" as="alternateBounds" />
          </mxGeometry>
        </mxCell>
        <mxCell id="iSHoY0e52lTv-vvgOU3p-77" value="" style="points=[];aspect=fixed;html=1;align=center;shadow=0;dashed=0;image;image=img/lib/allied_telesis/computer_and_terminals/VOIP_IP_phone.svg;" parent="1" vertex="1">
          <mxGeometry x="200" y="-726.75" width="19.74" height="30" as="geometry" />
        </mxCell>
        <mxCell id="iSHoY0e52lTv-vvgOU3p-78" value="" style="points=[];aspect=fixed;html=1;align=center;shadow=0;dashed=0;image;image=img/lib/allied_telesis/computer_and_terminals/VOIP_IP_phone.svg;" parent="1" vertex="1">
          <mxGeometry x="580" y="-515" width="19.74" height="30" as="geometry" />
        </mxCell>
        <mxCell id="iSHoY0e52lTv-vvgOU3p-79" value="" style="points=[];aspect=fixed;html=1;align=center;shadow=0;dashed=0;image;image=img/lib/allied_telesis/computer_and_terminals/VOIP_IP_phone.svg;" parent="1" vertex="1">
          <mxGeometry x="440" y="-840" width="26.32" height="40" as="geometry" />
        </mxCell>
        <mxCell id="iSHoY0e52lTv-vvgOU3p-80" value="" style="points=[];aspect=fixed;html=1;align=center;shadow=0;dashed=0;image;image=img/lib/allied_telesis/computer_and_terminals/VOIP_IP_phone.svg;" parent="1" vertex="1">
          <mxGeometry x="406.48" y="-565" width="19.74" height="30" as="geometry" />
        </mxCell>
        <mxCell id="iSHoY0e52lTv-vvgOU3p-125" style="edgeStyle=orthogonalEdgeStyle;rounded=0;orthogonalLoop=1;jettySize=auto;html=1;labelBorderColor=#FF1C42;fontSize=11;fontColor=#FF0F17;strokeColor=#FF0000;strokeWidth=1;" parent="1" edge="1">
          <mxGeometry relative="1" as="geometry">
            <mxPoint x="425.0799999999999" y="-714.9" as="sourcePoint" />
            <mxPoint x="959" y="-715" as="targetPoint" />
            <Array as="points">
              <mxPoint x="959" y="-715" />
            </Array>
          </mxGeometry>
        </mxCell>
        <mxCell id="iSHoY0e52lTv-vvgOU3p-84" value="" style="points=[[0.015,0.015,0],[0.5,0,0],[0.985,0.015,0],[1,0.22,0],[0.985,0.43,0],[0.73,0.85,0],[0.5,1,0],[0.285,0.85,0],[0.015,0.43,0],[0,0.22,0]];verticalLabelPosition=bottom;sketch=0;html=1;verticalAlign=top;aspect=fixed;align=center;pointerEvents=1;shape=mxgraph.cisco19.surveillance_camera;fillColor=#005073;strokeColor=none;" parent="1" vertex="1">
          <mxGeometry x="404.82" y="-726.75" width="30.08" height="23.5" as="geometry" />
        </mxCell>
        <mxCell id="iSHoY0e52lTv-vvgOU3p-85" value="" style="points=[[0.015,0.015,0],[0.5,0,0],[0.985,0.015,0],[1,0.22,0],[0.985,0.43,0],[0.73,0.85,0],[0.5,1,0],[0.285,0.85,0],[0.015,0.43,0],[0,0.22,0]];verticalLabelPosition=bottom;sketch=0;html=1;verticalAlign=top;aspect=fixed;align=center;pointerEvents=1;shape=mxgraph.cisco19.surveillance_camera;fillColor=#005073;strokeColor=none;" parent="1" vertex="1">
          <mxGeometry x="957.9" y="-720.25" width="30.08" height="23.5" as="geometry" />
        </mxCell>
        <mxCell id="iSHoY0e52lTv-vvgOU3p-86" value="" style="points=[[0.015,0.015,0],[0.5,0,0],[0.985,0.015,0],[1,0.22,0],[0.985,0.43,0],[0.73,0.85,0],[0.5,1,0],[0.285,0.85,0],[0.015,0.43,0],[0,0.22,0]];verticalLabelPosition=bottom;sketch=0;html=1;verticalAlign=top;aspect=fixed;align=center;pointerEvents=1;shape=mxgraph.cisco19.surveillance_camera;fillColor=#005073;strokeColor=none;" parent="1" vertex="1">
          <mxGeometry x="539.9200000000001" y="-889.28" width="30.08" height="23.5" as="geometry" />
        </mxCell>
        <mxCell id="iSHoY0e52lTv-vvgOU3p-87" value="" style="points=[[0.015,0.015,0],[0.5,0,0],[0.985,0.015,0],[1,0.22,0],[0.985,0.43,0],[0.73,0.85,0],[0.5,1,0],[0.285,0.85,0],[0.015,0.43,0],[0,0.22,0]];verticalLabelPosition=bottom;sketch=0;html=1;verticalAlign=top;aspect=fixed;align=center;pointerEvents=1;shape=mxgraph.cisco19.surveillance_camera;fillColor=#005073;strokeColor=none;" parent="1" vertex="1">
          <mxGeometry x="845.04" y="-886.2" width="30.08" height="23.5" as="geometry" />
        </mxCell>
        <mxCell id="iSHoY0e52lTv-vvgOU3p-88" value="" style="points=[[0.015,0.015,0],[0.5,0,0],[0.985,0.015,0],[1,0.22,0],[0.985,0.43,0],[0.73,0.85,0],[0.5,1,0],[0.285,0.85,0],[0.015,0.43,0],[0,0.22,0]];verticalLabelPosition=bottom;sketch=0;html=1;verticalAlign=top;aspect=fixed;align=center;pointerEvents=1;shape=mxgraph.cisco19.surveillance_camera;fillColor=#005073;strokeColor=none;" parent="1" vertex="1">
          <mxGeometry x="249.99999999999997" y="-740.38" width="30.08" height="23.5" as="geometry" />
        </mxCell>
        <mxCell id="iSHoY0e52lTv-vvgOU3p-89" value="" style="points=[[0.015,0.015,0],[0.5,0,0],[0.985,0.015,0],[1,0.22,0],[0.985,0.43,0],[0.73,0.85,0],[0.5,1,0],[0.285,0.85,0],[0.015,0.43,0],[0,0.22,0]];verticalLabelPosition=bottom;sketch=0;html=1;verticalAlign=top;aspect=fixed;align=center;pointerEvents=1;shape=mxgraph.cisco19.surveillance_camera;fillColor=#005073;strokeColor=none;" parent="1" vertex="1">
          <mxGeometry x="360" y="-610" width="30.08" height="23.5" as="geometry" />
        </mxCell>
        <mxCell id="iSHoY0e52lTv-vvgOU3p-90" value="" style="points=[[0.015,0.015,0],[0.5,0,0],[0.985,0.015,0],[1,0.22,0],[0.985,0.43,0],[0.73,0.85,0],[0.5,1,0],[0.285,0.85,0],[0.015,0.43,0],[0,0.22,0]];verticalLabelPosition=bottom;sketch=0;html=1;verticalAlign=top;aspect=fixed;align=center;pointerEvents=1;shape=mxgraph.cisco19.surveillance_camera;fillColor=#005073;strokeColor=none;" parent="1" vertex="1">
          <mxGeometry x="869.9200000000001" y="-579.21" width="30.08" height="23.5" as="geometry" />
        </mxCell>
        <mxCell id="iSHoY0e52lTv-vvgOU3p-91" value="" style="points=[[0.015,0.015,0],[0.5,0,0],[0.985,0.015,0],[1,0.22,0],[0.985,0.43,0],[0.73,0.85,0],[0.5,1,0],[0.285,0.85,0],[0.015,0.43,0],[0,0.22,0]];verticalLabelPosition=bottom;sketch=0;html=1;verticalAlign=top;aspect=fixed;align=center;pointerEvents=1;shape=mxgraph.cisco19.surveillance_camera;fillColor=#005073;strokeColor=none;" parent="1" vertex="1">
          <mxGeometry x="680.0000000000001" y="-573" width="30.08" height="23.5" as="geometry" />
        </mxCell>
        <mxCell id="iSHoY0e52lTv-vvgOU3p-93" value="" style="html=1;strokeWidth=1;shadow=0;dashed=0;shape=mxgraph.ios7.misc.wifi;fillColor=#007AFF;strokeColor=none;buttonText=;strokeColor2=#222222;fontColor=#222222;fontSize=8;verticalLabelPosition=bottom;verticalAlign=top;align=center;sketch=0;" parent="1" vertex="1">
          <mxGeometry x="806.27" y="-751" width="33.73" height="33.12" as="geometry" />
        </mxCell>
        <mxCell id="iSHoY0e52lTv-vvgOU3p-117" style="edgeStyle=orthogonalEdgeStyle;rounded=0;orthogonalLoop=1;jettySize=auto;html=1;labelBorderColor=#FF1C42;fontSize=11;fontColor=#FF0F17;strokeColor=#66FF66;strokeWidth=2;" parent="1" source="iSHoY0e52lTv-vvgOU3p-94" target="iSHoY0e52lTv-vvgOU3p-93" edge="1">
          <mxGeometry relative="1" as="geometry">
            <Array as="points">
              <mxPoint x="730" y="-740" />
              <mxPoint x="730" y="-740" />
            </Array>
          </mxGeometry>
        </mxCell>
        <mxCell id="iSHoY0e52lTv-vvgOU3p-94" value="" style="html=1;strokeWidth=1;shadow=0;dashed=0;shape=mxgraph.ios7.misc.wifi;fillColor=#007AFF;strokeColor=none;buttonText=;strokeColor2=#222222;fontColor=#222222;fontSize=8;verticalLabelPosition=bottom;verticalAlign=top;align=center;sketch=0;" parent="1" vertex="1">
          <mxGeometry x="465" y="-750" width="25" height="20" as="geometry" />
        </mxCell>
        <mxCell id="iSHoY0e52lTv-vvgOU3p-110" style="edgeStyle=orthogonalEdgeStyle;rounded=0;orthogonalLoop=1;jettySize=auto;html=1;exitX=1;exitY=0.25;exitDx=0;exitDy=0;labelBorderColor=#FF1C42;fontSize=11;fontColor=#FF0F17;strokeColor=none;strokeWidth=2;" parent="1" source="iSHoY0e52lTv-vvgOU3p-96" target="iSHoY0e52lTv-vvgOU3p-79" edge="1">
          <mxGeometry relative="1" as="geometry">
            <mxPoint x="410" y="-800" as="targetPoint" />
            <Array as="points">
              <mxPoint x="410" y="-867" />
              <mxPoint x="410" y="-817" />
            </Array>
          </mxGeometry>
        </mxCell>
        <mxCell id="iSHoY0e52lTv-vvgOU3p-111" style="edgeStyle=orthogonalEdgeStyle;rounded=0;orthogonalLoop=1;jettySize=auto;html=1;exitX=0.907;exitY=0.989;exitDx=0;exitDy=0;labelBorderColor=#FF1C42;fontSize=11;fontColor=#FF0F17;strokeColor=#FF0000;entryX=0.216;entryY=0.071;entryDx=0;entryDy=0;entryPerimeter=0;strokeWidth=1;exitPerimeter=0;" parent="1" source="iSHoY0e52lTv-vvgOU3p-96" target="iSHoY0e52lTv-vvgOU3p-89" edge="1">
          <mxGeometry relative="1" as="geometry">
            <Array as="points">
              <mxPoint x="366" y="-860" />
              <mxPoint x="366" y="-727" />
            </Array>
          </mxGeometry>
        </mxCell>
        <mxCell id="iSHoY0e52lTv-vvgOU3p-112" style="edgeStyle=orthogonalEdgeStyle;rounded=0;orthogonalLoop=1;jettySize=auto;html=1;exitX=1;exitY=0.25;exitDx=0;exitDy=0;labelBorderColor=#FF1C42;fontSize=11;fontColor=#FF0F17;strokeColor=#00FF00;strokeWidth=1;" parent="1" source="iSHoY0e52lTv-vvgOU3p-96" target="iSHoY0e52lTv-vvgOU3p-94" edge="1">
          <mxGeometry relative="1" as="geometry">
            <mxPoint x="450" y="-750" as="targetPoint" />
            <Array as="points">
              <mxPoint x="420" y="-739" />
            </Array>
          </mxGeometry>
        </mxCell>
        <mxCell id="iSHoY0e52lTv-vvgOU3p-113" style="edgeStyle=orthogonalEdgeStyle;rounded=0;orthogonalLoop=1;jettySize=auto;html=1;exitX=1.003;exitY=0.419;exitDx=0;exitDy=0;labelBorderColor=#FF1C42;fontSize=11;fontColor=#FF0F17;strokeColor=#3333FF;strokeWidth=1;exitPerimeter=0;" parent="1" source="iSHoY0e52lTv-vvgOU3p-96" target="iSHoY0e52lTv-vvgOU3p-79" edge="1">
          <mxGeometry relative="1" as="geometry">
            <mxPoint x="405" y="-800" as="targetPoint" />
            <Array as="points">
              <mxPoint x="412" y="-817" />
            </Array>
          </mxGeometry>
        </mxCell>
        <mxCell id="iSHoY0e52lTv-vvgOU3p-114" style="edgeStyle=orthogonalEdgeStyle;rounded=0;orthogonalLoop=1;jettySize=auto;html=1;exitX=0;exitY=0.75;exitDx=0;exitDy=0;labelBorderColor=#FF1C42;fontSize=11;fontColor=#FF0F17;strokeColor=#FF0000;strokeWidth=3;" parent="1" source="iSHoY0e52lTv-vvgOU3p-96" edge="1">
          <mxGeometry relative="1" as="geometry">
            <mxPoint x="200" y="-742" as="targetPoint" />
            <Array as="points">
              <mxPoint x="390" y="-986" />
              <mxPoint x="90" y="-986" />
              <mxPoint x="90" y="-742" />
            </Array>
          </mxGeometry>
        </mxCell>
        <mxCell id="iSHoY0e52lTv-vvgOU3p-115" style="edgeStyle=orthogonalEdgeStyle;rounded=0;orthogonalLoop=1;jettySize=auto;html=1;exitX=0.5;exitY=0;exitDx=0;exitDy=0;labelBorderColor=#FF1C42;fontSize=11;fontColor=#FF0F17;strokeColor=#FF0000;strokeWidth=1;entryX=0;entryY=0.22;entryDx=0;entryDy=0;entryPerimeter=0;" parent="1" source="iSHoY0e52lTv-vvgOU3p-96" edge="1" target="iSHoY0e52lTv-vvgOU3p-86">
          <mxGeometry relative="1" as="geometry">
            <mxPoint x="510" y="-889" as="targetPoint" />
            <Array as="points">
              <mxPoint x="435" y="-884" />
            </Array>
          </mxGeometry>
        </mxCell>
        <mxCell id="iSHoY0e52lTv-vvgOU3p-127" style="edgeStyle=orthogonalEdgeStyle;rounded=0;orthogonalLoop=1;jettySize=auto;html=1;labelBorderColor=#FF1C42;fontSize=11;fontColor=#FF0F17;strokeColor=#00FF00;strokeWidth=3;entryX=0;entryY=0.75;entryDx=0;entryDy=0;" parent="1" edge="1">
          <mxGeometry relative="1" as="geometry">
            <mxPoint x="209.99999999999977" y="-490" as="targetPoint" />
            <Array as="points">
              <mxPoint x="40" y="-914" />
              <mxPoint x="40" y="-490" />
            </Array>
            <mxPoint x="380" y="-900" as="sourcePoint" />
          </mxGeometry>
        </mxCell>
        <mxCell id="4ckXwX8KJy1ztd9NH9M3-135" style="edgeStyle=orthogonalEdgeStyle;rounded=0;orthogonalLoop=1;jettySize=auto;html=1;exitX=0;exitY=0.25;exitDx=0;exitDy=0;labelBorderColor=#FF1C42;fontSize=13;fontColor=#000000;strokeColor=#FF0000;strokeWidth=1;entryX=0.5;entryY=0;entryDx=0;entryDy=0;entryPerimeter=0;" edge="1" parent="1" source="iSHoY0e52lTv-vvgOU3p-96" target="iSHoY0e52lTv-vvgOU3p-87">
          <mxGeometry relative="1" as="geometry">
            <mxPoint x="836" y="-950" as="targetPoint" />
            <Array as="points">
              <mxPoint x="422" y="-1000" />
              <mxPoint x="860" y="-1000" />
            </Array>
          </mxGeometry>
        </mxCell>
        <mxCell id="iSHoY0e52lTv-vvgOU3p-96" value="&lt;div style=&quot;text-align: center ; font-size: 11px&quot;&gt;&lt;font style=&quot;font-size: 11px&quot;&gt;KAT KABİN&lt;/font&gt;&lt;/div&gt;&lt;font style=&quot;font-size: 11px&quot;&gt;&lt;div style=&quot;text-align: center&quot;&gt;KENAR SWİTCH&lt;/div&gt;&lt;/font&gt;" style="rounded=0;whiteSpace=wrap;html=1;rotation=90;align=right;fillColor=#d5e8d4;strokeColor=#82b366;" parent="1" vertex="1">
          <mxGeometry x="366.63" y="-921.1" width="82.75" height="54.72" as="geometry" />
        </mxCell>
        <mxCell id="iSHoY0e52lTv-vvgOU3p-128" style="edgeStyle=orthogonalEdgeStyle;rounded=0;orthogonalLoop=1;jettySize=auto;html=1;labelBorderColor=#FF1C42;fontSize=11;fontColor=#FF0F17;strokeColor=#00FF00;strokeWidth=3;" parent="1" edge="1">
          <mxGeometry relative="1" as="geometry">
            <mxPoint x="269.9999999999998" y="-480" as="targetPoint" />
            <mxPoint x="380" y="-904" as="sourcePoint" />
            <Array as="points">
              <mxPoint x="50" y="-904" />
              <mxPoint x="50" y="-480" />
            </Array>
          </mxGeometry>
        </mxCell>
        <mxCell id="iSHoY0e52lTv-vvgOU3p-129" style="edgeStyle=orthogonalEdgeStyle;rounded=0;orthogonalLoop=1;jettySize=auto;html=1;labelBorderColor=#FF1C42;fontSize=11;fontColor=#FF0F17;strokeColor=#00FF00;strokeWidth=3;entryX=0;entryY=0.5;entryDx=0;entryDy=0;exitX=0.5;exitY=1;exitDx=0;exitDy=0;" parent="1" target="iSHoY0e52lTv-vvgOU3p-25" edge="1" source="iSHoY0e52lTv-vvgOU3p-96">
          <mxGeometry relative="1" as="geometry">
            <mxPoint x="279.9999999999998" y="-470" as="targetPoint" />
            <mxPoint x="370" y="-894" as="sourcePoint" />
            <Array as="points">
              <mxPoint x="80" y="-894" />
              <mxPoint x="80" y="-565" />
            </Array>
          </mxGeometry>
        </mxCell>
        <mxCell id="iSHoY0e52lTv-vvgOU3p-130" style="edgeStyle=orthogonalEdgeStyle;rounded=0;orthogonalLoop=1;jettySize=auto;html=1;labelBorderColor=#FF1C42;fontSize=11;fontColor=#FF0F17;strokeColor=#00FF00;strokeWidth=3;" parent="1" target="iSHoY0e52lTv-vvgOU3p-28" edge="1">
          <mxGeometry relative="1" as="geometry">
            <mxPoint x="279.9999999999998" y="-470" as="targetPoint" />
            <mxPoint x="380" y="-870" as="sourcePoint" />
            <Array as="points">
              <mxPoint x="380" y="-870" />
              <mxPoint x="60" y="-870" />
              <mxPoint x="60" y="-470" />
              <mxPoint x="345" y="-470" />
            </Array>
          </mxGeometry>
        </mxCell>
        <mxCell id="iSHoY0e52lTv-vvgOU3p-131" style="edgeStyle=orthogonalEdgeStyle;rounded=0;orthogonalLoop=1;jettySize=auto;html=1;labelBorderColor=#FF1C42;fontSize=11;fontColor=#FF0F17;strokeColor=#00FF00;strokeWidth=3;" parent="1" edge="1">
          <mxGeometry relative="1" as="geometry">
            <mxPoint x="404.0588235294117" y="-480" as="targetPoint" />
            <mxPoint x="380" y="-884" as="sourcePoint" />
            <Array as="points">
              <mxPoint x="70" y="-884" />
              <mxPoint x="70" y="-460" />
              <mxPoint x="404" y="-460" />
            </Array>
          </mxGeometry>
        </mxCell>
        <mxCell id="iSHoY0e52lTv-vvgOU3p-133" style="edgeStyle=orthogonalEdgeStyle;rounded=0;orthogonalLoop=1;jettySize=auto;html=1;exitX=0;exitY=0.5;exitDx=0;exitDy=0;fontSize=11;fontColor=#FF0F17;labelBorderColor=#FF1C42;fillColor=#f8cecc;strokeColor=#3333FF;strokeWidth=3;entryX=0.95;entryY=1.027;entryDx=0;entryDy=0;entryPerimeter=0;" parent="1" source="iSHoY0e52lTv-vvgOU3p-96" target="iSHoY0e52lTv-vvgOU3p-80" edge="1">
          <mxGeometry relative="1" as="geometry">
            <mxPoint x="390.0700000000001" y="-631.9100000000001" as="sourcePoint" />
            <mxPoint x="430" y="-400" as="targetPoint" />
            <Array as="points">
              <mxPoint x="408" y="-960" />
              <mxPoint x="140" y="-960" />
              <mxPoint x="140" y="-390" />
              <mxPoint x="425" y="-390" />
            </Array>
          </mxGeometry>
        </mxCell>
        <mxCell id="iSHoY0e52lTv-vvgOU3p-136" style="edgeStyle=orthogonalEdgeStyle;rounded=0;orthogonalLoop=1;jettySize=auto;html=1;fontSize=11;fontColor=#FF0F17;labelBorderColor=#FF1C42;fillColor=#f8cecc;strokeColor=#3333FF;strokeWidth=3;exitX=0;exitY=0.75;exitDx=0;exitDy=0;" parent="1" target="iSHoY0e52lTv-vvgOU3p-78" edge="1" source="iSHoY0e52lTv-vvgOU3p-96">
          <mxGeometry relative="1" as="geometry">
            <mxPoint x="400" y="-960" as="sourcePoint" />
            <mxPoint x="590" y="-470" as="targetPoint" />
            <Array as="points">
              <mxPoint x="400" y="-935" />
              <mxPoint x="400" y="-950" />
              <mxPoint x="160" y="-950" />
              <mxPoint x="160" y="-380" />
              <mxPoint x="590" y="-380" />
            </Array>
          </mxGeometry>
        </mxCell>
        <mxCell id="4ckXwX8KJy1ztd9NH9M3-4" value="" style="endArrow=classic;html=1;rounded=0;labelBorderColor=#FF1C42;fontSize=11;fontColor=#FF0F17;strokeColor=#FF0000;strokeWidth=3;entryX=0.5;entryY=0;entryDx=0;entryDy=0;entryPerimeter=0;" edge="1" parent="1" target="iSHoY0e52lTv-vvgOU3p-91">
          <mxGeometry width="50" height="50" relative="1" as="geometry">
            <mxPoint x="695" y="-690" as="sourcePoint" />
            <mxPoint x="510" y="-700" as="targetPoint" />
            <Array as="points">
              <mxPoint x="695" y="-650" />
            </Array>
          </mxGeometry>
        </mxCell>
        <mxCell id="4ckXwX8KJy1ztd9NH9M3-5" value="" style="endArrow=classic;html=1;rounded=0;labelBorderColor=#FF1C42;fontSize=11;fontColor=#FF0F17;strokeColor=#FF0000;strokeWidth=3;entryX=0.5;entryY=0;entryDx=0;entryDy=0;entryPerimeter=0;" edge="1" parent="1">
          <mxGeometry width="50" height="50" relative="1" as="geometry">
            <mxPoint x="884" y="-710" as="sourcePoint" />
            <mxPoint x="884.41" y="-586.5" as="targetPoint" />
          </mxGeometry>
        </mxCell>
        <mxCell id="4ckXwX8KJy1ztd9NH9M3-6" value="" style="shape=image;verticalLabelPosition=bottom;labelBackgroundColor=default;verticalAlign=top;aspect=fixed;imageAspect=0;image=data:image/png,iVBORw0KGgoAAAANSUhEUgAAA3MAAAIzCAMAAACduLCQAAAAAXNSR0IB2cksfwAAAAlwSFlzAAAOxAAADsQBlSsOGwAAAddQTFRF////1NTU/v//+vXu8Pf8//z38Oz0+v//7unp7fT09Ozw9/z////+/v7+//7+/v7//fr38vL3//v38vLy9vv//v373d3d9PT0+Pj46Ojo4uLi4eHh4ODg3Nzc2NjY1dXV1tbW2dnZ8/Pz9vb2+fn5/Pz8+/v79/f39fX16urq6enp5OTk39/f19fX29vb3t7eAAAA/7ZmAABmtv////+2ZgAAZrb/ZgA6kNv/25A6AGa2///bkDoAADqQ29uQOgBmOpDb2////9uQtmYAOgAA///x693d5fD69/j8//v08e3t7e3t7+/v7Ozs7fX8//35+ff3ra2toaGh6+vr//Xh7ejo/f39+vr68/b6/f////z18u7u7u7u7/b88u71//34+ff69uLMvdrzHx8ffn5+EBAQBAQEEhISFBQUjo6O8fHxV1dXDAwMq6urCgoKAgIC0tLSSkpKOgA6AAA6tv/bOjoAAGaQxcXF5+fnmZmZg4ODQ0NDMzMzGRkZZmZmzMzMISEhr6+vf39/CAgI///y59fX4+/6//bk+vn529vjtOf///PaxtPq5/H4/f3+3f////rv3dPl9P//2Mzgwf//NTU1YWFhl5eXz8/Pqqqqd3d3u7u7U1NTaCWoPgAAFtFJREFUeJzt3Yl/XOdVxvFxoKQsSqGB7KUJie1SSBh5SeIljWOHtS7QAjaLWQNpuuCGsrdQlrLvLfvyx6IZyc4oue+ZczXnPee5M78vEJyPLJ3nvmeezEiakWazFadmAIK46kTngDB0DshF54BcdA7IReeAXHQOyEXngFx0DshF54BcdA7IReeAXHQOyEXngFx0DshF54BcdA7IReeAXHQOyEXngFx0DshF54BcdA7IReeAXHQOyEXngFx0DshF54BcdA7IReeAXHQOyEXngFx0zuuB2ewbvnH5p/d904OLf77/m7/lW/3v/m17Bx9g9tDe3t4HFv8ymy3//du/48Gjt3/w4e9c/v/v2osMDUF0DshF54BcdA7I1azTKTg98ujKsT32+BNPHvzPE4v/O/jDUx/67g9HzXn6mace/55nnzt95szp04f/e3rxz+P/eua5sx95+Hs/+n3f/6Fnnn963Mf/8PMvPPXkYe5l9ncuY+Bfnwj416d+4JEXnnk+6nimz1fMJJvOP8n7V1/zqoQskSOUjm5Ixc1p9PtXHyKdm9QIpaMbQucS5tO51BFKRzeEziXMp3OpI5SObgidS5hP51JHKB3dEDqXMJ/OpY5QOrohdC5hPp1LHaF0dEPoXMJ8Opc6QunohtC5hPl0LnWE0tENoXMJ8+lc6giloxtC5xLm07nUEUpHN4TOJcync6kjlI5uCJ1LmE/nUkcoHd0QOpcwn86ljlA6uiF0LmE+nUsdoXR0Q+hcwnw6lzpC6eiG0LmE+XQudYTS0Q2hcwnz6VzqCKWjG0LnEubTudQRSkc3hM4lzKdzqSOUjm4InUuYT+dSRygd3RDZzq3+QKI5gDCen/s137DYm9p0/knev/qaVyllcVCPW3FzGv3+1YdI5yZFPS6dS5hP51Kpx6VzCfPpXCr1uHQuYT6dS6Uel84lzKdzqdTj0rmE+XQulXpcOpcwn86lUo9L5xLm07lU6nFlO3fseSgbDtnUxt/4H/6w+8u3nTs/PLPj9YyllMVBPW6nm9Mh80Z1NH93n4dy4eKLHWdGUsrioB635/2cfaMaMb/6EDt17qWXO86MpJTFQT1u186ZN6oR86sPsdMhXbrccWYkpSwO6nG7fj5n3qhGzK8+xF6PLfl8rgv1uH0fWzo+n9t0SAa+bjkp6nFlv24ZOWRTdG5S1OPSuYT5jfe/cnX+ysdebTwKqL7mVUpZHNTjdu2MeaMaMb/6EPsc0pWr1/Zfee3SK691mRlJKYuDetyenbNvVCPmVx9it+8VHBzP9cZ/k6qveZVSFgf1uJ2/V2DcqNa8//Y/D+XwP0k3uJ+Lph63z83pkH2jOpq/u89DWTz0ns9bp1N9zauUsjiox+39+Vz7RjVifvUh8nXLSVGPy9ctE+bTuVTqcelcwnw6l0o9Lp1LmN967pf1sLv6mlcpZXFQj9v3uV/253Lu+dWH2OuQrr8+n1/rNDOSUhYH9bh976esG9WI+dWH2POQLvEc52jqcfs/NmzdqEbMrz5E7ucmRT0u93MJ8/l8LpV6XNnP57b/eShrZoZfxckpZXFQj1txczo2f0efh3LhpZd5zWon6nG73c+tvVGNmF99iHx/blLU4/L9uYT5dC6Velw6lzB/6LHlxXsPznlsGU09br/HlutuVCPmVx9ip0Na/oimG9f6zIyklMVBPW7X+ynzRjVifvUhdvpewfJHEfKa1XDqcbt+r8C8UY2YX32IfQ7pytXlf5J4zWo09bg9O2ffqEbMrz7EToe0fHlh60eAVl/zKqUsDupxuz62NG9UI+ZXHyJft5wU9biyX7fc/ueh8PsKOlGP2+fmdMj1+wp29HkoCzf4vTxdqMftej9n3qhGzK8+xF7PcV7+R4vvz0VTj9v3Oc7WjWrE/OpD5PO5SVGPK/v5XOSQTdG5SVGPS+cS5re/V8DvK+hAPW7v7xXw+wqa78/vK+hEPW7f74nz+wqM9+f3FXSiHrfzc79O/vsKRv+ljnrez/Hcr3Dqcfvfz/HcL/O5X/y+gnDqcfs/9+uEv69g+5+HsmZm+FWcnFIWB/W4FTenY/N3+HkoXWdGUsrioB6X7xUkzB94/+VDgCWehxJNPW63zqy9UY2YX32IPQ5p3z6X8mtepZTFQT1uv/updTeqEfOrD7Hb8y2Nz3Wrr3mVUhYH9bidn2+59ofK7nDnDtzgZ6d3oB638+djxo1qxPzqQ+x4SBcu8vlcNPW43b8G0rxRjZhffYg97+daL3eqvuZVSlkc1OP2v5+zX0O3w527/rr1GKD6mlcpZXFQj9uzc/aNasT86kPs83XLEz5ZoIBSFgf1uD2/brn+t/Ls7vNQ+P5cP+pxO9ycDnm/P8fzUPrMjKSUxUE9Ls9DSZhP51Kpx6VzCfPpXCr1uHQuYT6dS6Uel84lzKdzqdTj0rmE+XQulXpcOpcwn86lUo9L5xLmm08c4GcQRVOP278z/Awi7udyqceVvZ/b8uehrJ8ZfhUnp5TFQT1uxc3p2Hyeh9JnZiSlLA7qcfvdnBZP/ro247HlCd+/+ppXKWVxUI/b7+Z04/Lh7zWmc0Pvf/Q7i+Y8xzmeetxunTv8hY/7587TueH3vxHwS5+TKGVxUI/buXOz/TW/JGR3O3fl6rWeMyP1yPKDP/TDHT7qktLRDen72PLAJX7WHp/P5VKP2/NrKEelo3MT6dyPtN7gzvKjP/bxj978xI/PZj/xk2fOxIQ6geqbyzqy35+LHLKpHelck1IWB/W4dC5hPp1LpR5XtnNb9TyUgicbRFLK4qAet+TmtGoXnocylZktSlkc1ONW59uJx5ZTmdmilMVBPW51PjonNLNFKYuDetzofDdvdphffYh0blLU4wbnu/nJT3WYX32IdG5S1ONG53vspzrMrz5Eoc799M8Y7/PQrduP/ezPzX7+F+48/vjNX3zfLz34y7/SM4sq9bjV+Xalc6OflVF9zauUsjiox63Otyudm8TMlqQsDwR9HKWjG1Kdj84JzWzJyfKrvxb0gZSObkh1PjonNLNFKYuDetzqfHROaGaLUhYH9bjV+eic0MwWpSwO6nGr89E5oZktSlkc1ONW56NzQjNblLI4qMetzkfnhGa2KGVxUI9bnY/OCc1sUcrioB63Ot80XrO6IzNblLI4qMetzsdrVoVmtihlcVCPW52Px5ZCM1uUsjiox63OR+eEZrYoZXFQj1udj84JzWxRyuKgHrc63yQ690bBzOprXqWUxUE9bnW+SXTukYKZ1de8SimLg3rc6nyT6FwFpWtWyuKgHrc6H51rULpmpSwO6nGr89G5BqVrVsrioB63Oh+da1C6ZqUsDupxq/PRuQala1bK4qAetzofnWtQumalLA7qcTfPt9d/vvoh9qB0zUpZHNTjbpxvw1+nSecalK5ZKYuDetyN891JmK9+iD0oXbNSFgf1uJvmu306Yb76IfagdM1KWRzU426a71av+UqvWa2gdM1KWRzU426Yb9PKTeM1qxWUrlkpi4N63Op8PLZsULpmpSwO6nGr89G5BqVrVsrioB63Oh+da1C6ZqUsDupxq/PRuQala1bK4qAetzofnWtQumalLA7qcavz0bkGpWtWyuKgHrc6H51rULpmpSwO6nGr89G5BqVrVsrioB63Oh+da1C6ZqUsDupxq/PRuQala1bK4qAetzofnWtQumalLA7qcavz0bkGpWtWyuKgHrc6H51rULpmpSwO6nGr89G5BqVrVsrioB63Oh+da1C6ZqUsDupxq/PRuQala1bK4qAetzofnWtQumalLA7qcavz0bkGpWtWyuKgHrc6H51rULpmpSwO6nGr89G5BqVrVsrioB63Oh+da1C6ZqUsDupxq/PRuQala1bK4qAetzofnWtQumalLA7qcavz0bkGpWtWyuKgHrc6H51rULpmpSwO6nGr89G5BqVrVsrioB63Oh+da1C6ZqUsDupxq/PRuQala1bK4qAetzofnWtQumalLA7qcavz0bkGpWtWyuKgHjc037PjfwEknWtQumalLA7qcUPzfXz8Lxencw1K16yUxUE9bnU+OtegdM1KWRzU41bno3MNSteslMVBPW51PjrXoHTNSlkc1OPm5ds7+fzqQ/z1gpnV17xKKYuDety8fLdOPr/6EH+jYGb1Na9SyuKgHrc63yQ6VzG/+ppXKWVxUI9bnY/OCc1sUcrioB63Oh+dE5rZopTFQT1udT46JzSzRSmLg3rc6nx0Tmhmi1IWB/W41fnonNDMFqUsDupxq/PROaGZLUpZHNTjVuejc0IzW5SyOKjHrc5H54RmtihlcVCPW52PzgnNbFHK4qAetzofnROa2aKUxUE9bnU+Oic0s0Upi4N63Op8b7becGrFvFrmiRyJjP/pZ0YMfuHTkaN93vrMCU/ps597MyviW299fv753xyZb+9TQx/r4Cb99LMnvOLNfeLuqWHH/lb1fxji5w+/sGnVqbV/A4k+WR0g0F3PX9q+zt3XLB+dk/JodYBAdK6BzqGTL3j+Ep0Dwuz61y3pHLLteueGf2LFjM6hGzrXQOfQCZ1rGPMtNWAEOtdwtt9M7DY6B+Sic0CuXe/c+N9kBGxm1zs3/jf2AZuhc0CuSXTujX4f+na/Dw0MmkTn3u73oekcsjXrdOw1q5mJcvE1FGSbT+E1qx3x+RyyTeKxJbBF6ByQi84BuegckIvOAbnoHJCLzgG56ByQi84BuegckIvOAbnoHJCLzgG56ByQi84BuXb9NatAtl1/zSqQjceWQC46B+Sic0AuOgfkonNALjoH5KJzQC46B+Sic0AuOgfkonNALjoH5KJzQC46B+Sic0CuSbxm9ZHi+UCgSbxm9beK5wOBJvHYsno+EIjOAbnoHJCLzgG56ByQi84BuegckIvOAbnoHJCLzgG56ByQi84BuegckIvOYXMXLl6rjjAhdA7INYnXrFbPx4Hrr55f/PP1Fxf/mM/PnT/8/8s/Hbzt8M/Xln/z3W/GMZN4zWr1fMyOOnf9iy/PZvvzg97t//bLRzW88cpri84t/rx8jPneNxcnV8NjS/gsGnThpYPKXbn64uLfLy2rdviGe52b7Z87P/DmwtSK6Bx8Drpz4eKLs/slOrjLe2/nDko58Oa60F2cPr3Z+9M5+Fx/9XeuXl78Yf/wweJBAY8ePF6e3e/cwZ3cwJu3yd5Hzmz6IegcfK5/8Xd/7+q12bHO3fu6SaNz73xZZWuc3bhxCZ17YIP3jZiPIIuvWC6/hHL0YPHoYeThFzLf+9hy9c1b47GAxuXczz202bvTOQnLLl06d/7dX0M5+gpl62soizdvidu3Yz4Ojy3hs2zQlcWndDv5vYLbDz8X9aHoHHzufU/88qJaR9/0Pnw8efHy/e+JL+/i3vPm0twh9uIaR+eA9R4NbBydA9Y4fTb4A9I5wBLypcpj6BzQdqvDx6RzQC46B+Sic0AuXrMK5OI1q0AuHlsCuegckIvOAbnoHJCLzgG56ByQi84BuegckIvOAbnoHJCLzgG56ByQi84BuegckIvOAbnoHJCLzgG56ByQi84BuegckIvOAbnoHJCLzgG56ByQi84BufjZ6UAufnY6kIvHlkAuOgfkonNALjoH5KJzQC46B+Sic0AuOgfkonNALjoH5KJzQC46B+Sic0AuOgfkonNALl6zCuTiNatALh5bArnoHJCLzgG56ByQi84BuegckIvOAbnoHJCLzgG56ByQi84Buehcw17BTOwEOtfw5Oj32KOm8KBzDafW/5V3e/v342Ng+9C5hhN0bjLO/sHbT1Rn2GG+16zO7/7hncxUq/a+9OZ8t3z57b4neuczf/THX6i+yGPufuXZ2Evc+5M/rb4mA69Z1ZmZ6c8+9+e9PvS2H92meGzZ8EbBzC1RfXNRR+caxn/dEkeqby7q6ByisS4bnUM01mWjc4jGumx0DtFYl43OIRrrstE5RGNdNjqHaKzLRucQjXXZ6ByisS4bnUM01mWjc4jGumx0DtFYl43OIRrrstE5RGNdNjqHaKzLRucQjXXZ6ByisS4bnUM01mWjc4jGumx0DtFYl43OIRrrstE5RGNdNjqHaKzLRucQjXXZ6ByisS4bnUM01mWjc4jGumx0DtFYl43OIRrrstE5RGNdNjqHaKzLRucQjXXZ6ByisS4bnUM01mWjc4jGumx0DtFYl43OIRrrstE5RGNdNjqHaKzLRucQjXXZ6ByisS4bnUM01mWjc4jGumx0DtFYl43OIRrrstE5RGNdNjqHaKzLRucQjXXZ6ByisS4bnUM01mWjc4jGumx0DtFYl43OIRrrstE5RGNdNjqHaKzLRucQjXXZ6ByisS4bnUM01mWjc4jGumx0DtFYl43OIRrrstE5RGNdNjqHaKzLRucQjXXZ6ByisS6b63zu9k6xBkucFNZlo3OIxrpsdA7RWJfNdT5f7Z1iDZY4KazLxv0corEuG51DNNZlo3OIxrpsdA7RWJeNziEa67LRuW7+4i//qjpCjWmuKw+dQzTWZeP7c+P89d9UJ9AntC6vv/27oz/8/T/0H8b9HKJNcF23/jFxGJ1DNNZl47ElorEuG/dziMa6bHQO0ViXjc6944GcMVuPztn4fO4dD+aM2Xp0zsb93H3/9M8pY7YfnbPFde4Ds9m/fO3rm6VpyFniv/5bypjtR+ds3M8hGuuy0TlEY1021/n8e+8Ua7DESWFdNtf5/EfvFGuwxElhXTbX+fxn7xRrsMRJYV021/n8V+8Ua7DESWFdNtf5fLZ3ijVY4qSwLtskzmcSIXEP67JN4nwmERL3sC7bJM5nEiFxD+uyTeJ8JhES97Aum+t87vROsQZLnBTWZXOdz3/3TrEGS5wU1mVznc//9E6xBkucFNZl4/eJIxrrstE5RGNdNjqHaKzLRucQjXXZ6ByisS4bnUM01mWjc4jGumx0DtFYl43OIRrrstE5RGNdNjqHaKzLRucQjXXZ6ByisS4bnUM01mWjc4jGumx0DtFYl43OIRrrstE5RGNdNjqHaKzLRucQjXXZ6ByisS4bnUM01mWjc4jGumx0DtFYl43OIRrrstE5RGNdNjqHaKzLRucQjXXZ6ByisS4bnUM01mWjc4jGumx0DtFYl43OIRrrstE5RGNdNjqHaKzLRucQjXXZ6ByisS4bnUM01mWjc4jGumx0DtFYl43OIRrrstE5RGNdNjqHaKzLRucQjXXZ6ByisS4bnUM01mWjc4jGumx0DtFYl43OIRrrstE5RGNdNjqHaKzLRucQjXXZ6ByisS4bnUM01mWjc4jGumx0DtFYl43OIRrrstE5RGNdNjqHaKzLRucQjXXZ6ByisS4bnUM01mWjc4jGumx0bgL+tzrAOLu+rnXoXMOdgpktX60OME71zUUdnWv4v4KZLdXnP9LE4qZrns+pFXMAYU4NO96/7tW3bTr/JO9ffc2rErJEjlA6uiEVN6fR7199iHRuUiOUjm4InUuYT+dSRygd3RA6lzCfzqWOUDq6IXQuYT6dSx2hdHRD6FzCfDqXOkLp6IbQuYT5dC51hNLRDaFzCfPpXOoIpaMbQucS5tO51BFKRzeEziXMp3OpI5SObgidS5hP51JHKB3dEDqXMJ/OpY5QOrohdC5hPp1LHaF0dEPoXMJ8Opc6QunohtC5hPl0LnWE0tENoXMJ8+lc6giloxsi27nG6+oA9BFa7E1xPzepEUpHN0T2fi5yyKbo3KRGKB3dEDqXMJ/OpY5QOrohdC5hPp1LHaF0dEPoXMJ8Opc6QunohtC5hPl0LnWE0tENUe3c/wOzXLSgFLOaEwAAAABJRU5ErkJggg==;" vertex="1" parent="1">
          <mxGeometry x="167.9" y="-230" width="883" height="563" as="geometry" />
        </mxCell>
        <mxCell id="4ckXwX8KJy1ztd9NH9M3-8" value="&lt;font style=&quot;font-size: 20px;&quot; color=&quot;#000000&quot;&gt;4 . KAT PLANI&lt;/font&gt;" style="text;html=1;align=center;verticalAlign=middle;resizable=0;points=[];autosize=1;strokeColor=none;fillColor=none;fontSize=20;fontColor=#FF0F17;" vertex="1" parent="1">
          <mxGeometry x="892.9399999999998" y="-220" width="140" height="30" as="geometry" />
        </mxCell>
        <mxCell id="4ckXwX8KJy1ztd9NH9M3-9" value="" style="shape=image;html=1;verticalAlign=top;verticalLabelPosition=bottom;labelBackgroundColor=#ffffff;imageAspect=0;aspect=fixed;image=https://cdn4.iconfinder.com/data/icons/business-660/512/18_presenter_conference_meeting_business-128.png;fontSize=20;fontColor=#000000;" vertex="1" parent="1">
          <mxGeometry x="782.94" y="190" width="50" height="50" as="geometry" />
        </mxCell>
        <mxCell id="4ckXwX8KJy1ztd9NH9M3-11" value="&lt;font style=&quot;font-size: 10px;&quot;&gt;TOPLANTI ODASI -1&lt;/font&gt;" style="text;html=1;align=center;verticalAlign=middle;resizable=0;points=[];autosize=1;strokeColor=none;fillColor=none;fontSize=10;fontColor=#000000;" vertex="1" parent="1">
          <mxGeometry x="794.17" y="170" width="110" height="20" as="geometry" />
        </mxCell>
        <mxCell id="4ckXwX8KJy1ztd9NH9M3-12" value="&lt;font style=&quot;font-size: 10px&quot;&gt;TOPLANTI ODASI - 2&lt;/font&gt;" style="text;html=1;align=center;verticalAlign=middle;resizable=0;points=[];autosize=1;strokeColor=none;fillColor=none;fontSize=10;fontColor=#000000;" vertex="1" parent="1">
          <mxGeometry x="524.1" y="170" width="110" height="20" as="geometry" />
        </mxCell>
        <mxCell id="4ckXwX8KJy1ztd9NH9M3-14" value="&lt;font style=&quot;font-size: 10px&quot;&gt;OĞRENCİ İŞLERİ - 1&lt;/font&gt;" style="text;html=1;align=center;verticalAlign=middle;resizable=0;points=[];autosize=1;strokeColor=none;fillColor=none;fontSize=10;fontColor=#000000;" vertex="1" parent="1">
          <mxGeometry x="439.21" y="-40" width="110" height="20" as="geometry" />
        </mxCell>
        <mxCell id="4ckXwX8KJy1ztd9NH9M3-16" value="&lt;font style=&quot;font-size: 10px&quot;&gt;OĞRENCİ İŞLERİ - 2&lt;br&gt;&lt;/font&gt;" style="text;html=1;align=center;verticalAlign=middle;resizable=0;points=[];autosize=1;strokeColor=none;fillColor=none;fontSize=10;fontColor=#000000;" vertex="1" parent="1">
          <mxGeometry x="597.82" y="-40" width="110" height="20" as="geometry" />
        </mxCell>
        <mxCell id="4ckXwX8KJy1ztd9NH9M3-17" value="&lt;font style=&quot;font-size: 10px&quot;&gt;OĞRENCİ İŞLERİ -&amp;nbsp; 3&lt;br&gt;&lt;/font&gt;" style="text;html=1;align=center;verticalAlign=middle;resizable=0;points=[];autosize=1;strokeColor=none;fillColor=none;fontSize=10;fontColor=#000000;" vertex="1" parent="1">
          <mxGeometry x="762.9000000000001" y="-40" width="110" height="20" as="geometry" />
        </mxCell>
        <mxCell id="4ckXwX8KJy1ztd9NH9M3-18" value="&lt;font style=&quot;font-size: 13px;&quot;&gt;WC&amp;nbsp;&lt;/font&gt;" style="text;html=1;align=center;verticalAlign=middle;resizable=0;points=[];autosize=1;strokeColor=none;fillColor=none;fontSize=13;fontColor=#000000;" vertex="1" parent="1">
          <mxGeometry x="222.9" y="-100" width="40" height="20" as="geometry" />
        </mxCell>
        <mxCell id="4ckXwX8KJy1ztd9NH9M3-19" value="" style="shape=image;html=1;verticalAlign=top;verticalLabelPosition=bottom;labelBackgroundColor=#ffffff;imageAspect=0;aspect=fixed;image=https://cdn4.iconfinder.com/data/icons/business-660/512/12_meeting_business_office_team-128.png;fontSize=13;fontColor=#000000;rotation=0;" vertex="1" parent="1">
          <mxGeometry x="531.6999999999999" y="180" width="70" height="70" as="geometry" />
        </mxCell>
        <mxCell id="4ckXwX8KJy1ztd9NH9M3-20" value="" style="shape=image;html=1;verticalAlign=top;verticalLabelPosition=bottom;labelBackgroundColor=#ffffff;imageAspect=0;aspect=fixed;image=https://cdn4.iconfinder.com/data/icons/business-660/512/12_meeting_business_office_team-128.png;fontSize=13;fontColor=#000000;rotation=0;" vertex="1" parent="1">
          <mxGeometry x="212.9" y="30" width="60" height="60" as="geometry" />
        </mxCell>
        <mxCell id="4ckXwX8KJy1ztd9NH9M3-21" value="&lt;font style=&quot;font-size: 10px&quot;&gt;TOPLANTI ODASI - 3&lt;/font&gt;" style="text;html=1;align=center;verticalAlign=middle;resizable=0;points=[];autosize=1;strokeColor=none;fillColor=none;fontSize=10;fontColor=#000000;" vertex="1" parent="1">
          <mxGeometry x="187.90000000000006" y="20" width="110" height="20" as="geometry" />
        </mxCell>
        <mxCell id="4ckXwX8KJy1ztd9NH9M3-28" value="" style="sketch=0;pointerEvents=1;shadow=0;dashed=0;html=1;strokeColor=none;fillColor=#505050;labelPosition=center;verticalLabelPosition=bottom;verticalAlign=top;outlineConnect=0;align=center;shape=mxgraph.office.devices.workstation_pc;fontSize=13;fontColor=#000000;" vertex="1" parent="1">
          <mxGeometry x="427.9" y="-170" width="53" height="59" as="geometry" />
        </mxCell>
        <mxCell id="4ckXwX8KJy1ztd9NH9M3-29" value="" style="sketch=0;pointerEvents=1;shadow=0;dashed=0;html=1;strokeColor=none;fillColor=#505050;labelPosition=center;verticalLabelPosition=bottom;verticalAlign=top;outlineConnect=0;align=center;shape=mxgraph.office.devices.workstation_pc;fontSize=13;fontColor=#000000;" vertex="1" parent="1">
          <mxGeometry x="567.8199999999999" y="-170" width="53" height="59" as="geometry" />
        </mxCell>
        <mxCell id="4ckXwX8KJy1ztd9NH9M3-30" value="" style="sketch=0;pointerEvents=1;shadow=0;dashed=0;html=1;strokeColor=none;fillColor=#505050;labelPosition=center;verticalLabelPosition=bottom;verticalAlign=top;outlineConnect=0;align=center;shape=mxgraph.office.devices.workstation_pc;fontSize=13;fontColor=#000000;" vertex="1" parent="1">
          <mxGeometry x="737.9" y="-170" width="53" height="59" as="geometry" />
        </mxCell>
        <mxCell id="4ckXwX8KJy1ztd9NH9M3-31" value="" style="sketch=0;pointerEvents=1;shadow=0;dashed=0;html=1;strokeColor=none;fillColor=#505050;labelPosition=center;verticalLabelPosition=bottom;verticalAlign=top;outlineConnect=0;align=center;shape=mxgraph.office.devices.workstation_pc;fontSize=13;fontColor=#000000;" vertex="1" parent="1">
          <mxGeometry x="370" y="-520" width="39.92" height="40" as="geometry" />
        </mxCell>
        <mxCell id="4ckXwX8KJy1ztd9NH9M3-32" value="" style="sketch=0;pointerEvents=1;shadow=0;dashed=0;html=1;strokeColor=none;fillColor=#505050;labelPosition=center;verticalLabelPosition=bottom;verticalAlign=top;outlineConnect=0;align=center;shape=mxgraph.office.devices.workstation_pc;fontSize=13;fontColor=#000000;" vertex="1" parent="1">
          <mxGeometry x="270.08000000000004" y="-520" width="39.92" height="40" as="geometry" />
        </mxCell>
        <mxCell id="4ckXwX8KJy1ztd9NH9M3-33" value="" style="sketch=0;pointerEvents=1;shadow=0;dashed=0;html=1;strokeColor=none;fillColor=#505050;labelPosition=center;verticalLabelPosition=bottom;verticalAlign=top;outlineConnect=0;align=center;shape=mxgraph.office.devices.workstation_pc;fontSize=13;fontColor=#000000;" vertex="1" parent="1">
          <mxGeometry x="210" y="-525" width="39.92" height="40" as="geometry" />
        </mxCell>
        <mxCell id="4ckXwX8KJy1ztd9NH9M3-34" value="" style="shape=image;html=1;verticalAlign=top;verticalLabelPosition=bottom;labelBackgroundColor=#ffffff;imageAspect=0;aspect=fixed;image=https://cdn2.iconfinder.com/data/icons/freecns-cumulus/16/519970-033_PrinterText-128.png" vertex="1" parent="1">
          <mxGeometry x="487.9" y="-170" width="30" height="30" as="geometry" />
        </mxCell>
        <mxCell id="4ckXwX8KJy1ztd9NH9M3-35" value="" style="shape=image;html=1;verticalAlign=top;verticalLabelPosition=bottom;labelBackgroundColor=#ffffff;imageAspect=0;aspect=fixed;image=https://cdn2.iconfinder.com/data/icons/freecns-cumulus/16/519970-033_PrinterText-128.png" vertex="1" parent="1">
          <mxGeometry x="627.9" y="-170" width="30" height="30" as="geometry" />
        </mxCell>
        <mxCell id="4ckXwX8KJy1ztd9NH9M3-36" value="" style="shape=image;html=1;verticalAlign=top;verticalLabelPosition=bottom;labelBackgroundColor=#ffffff;imageAspect=0;aspect=fixed;image=https://cdn2.iconfinder.com/data/icons/freecns-cumulus/16/519970-033_PrinterText-128.png" vertex="1" parent="1">
          <mxGeometry x="802.86" y="-170" width="30" height="30" as="geometry" />
        </mxCell>
        <mxCell id="4ckXwX8KJy1ztd9NH9M3-37" value="" style="points=[];aspect=fixed;html=1;align=center;shadow=0;dashed=0;image;image=img/lib/allied_telesis/computer_and_terminals/VOIP_IP_phone.svg;" vertex="1" parent="1">
          <mxGeometry x="530.57" y="-170" width="19.74" height="30" as="geometry" />
        </mxCell>
        <mxCell id="4ckXwX8KJy1ztd9NH9M3-38" value="" style="points=[];aspect=fixed;html=1;align=center;shadow=0;dashed=0;image;image=img/lib/allied_telesis/computer_and_terminals/VOIP_IP_phone.svg;" vertex="1" parent="1">
          <mxGeometry x="668.1600000000001" y="-170" width="19.74" height="30" as="geometry" />
        </mxCell>
        <mxCell id="4ckXwX8KJy1ztd9NH9M3-39" value="" style="points=[];aspect=fixed;html=1;align=center;shadow=0;dashed=0;image;image=img/lib/allied_telesis/computer_and_terminals/VOIP_IP_phone.svg;" vertex="1" parent="1">
          <mxGeometry x="841.6200000000001" y="-170" width="19.74" height="30" as="geometry" />
        </mxCell>
        <mxCell id="4ckXwX8KJy1ztd9NH9M3-43" value="" style="shape=image;html=1;verticalAlign=top;verticalLabelPosition=bottom;labelBackgroundColor=#ffffff;imageAspect=0;aspect=fixed;image=https://cdn2.iconfinder.com/data/icons/whcompare-isometric-web-hosting-servers/50/laptop-with-code-128.png;fontSize=13;fontColor=#000000;" vertex="1" parent="1">
          <mxGeometry x="474.09999999999997" y="200" width="50" height="50" as="geometry" />
        </mxCell>
        <mxCell id="4ckXwX8KJy1ztd9NH9M3-44" value="" style="shape=image;html=1;verticalAlign=top;verticalLabelPosition=bottom;labelBackgroundColor=#ffffff;imageAspect=0;aspect=fixed;image=https://cdn2.iconfinder.com/data/icons/whcompare-isometric-web-hosting-servers/50/laptop-with-code-128.png;fontSize=13;fontColor=#000000;" vertex="1" parent="1">
          <mxGeometry x="212.9" y="90" width="50" height="50" as="geometry" />
        </mxCell>
        <mxCell id="4ckXwX8KJy1ztd9NH9M3-45" value="" style="shape=image;html=1;verticalAlign=top;verticalLabelPosition=bottom;labelBackgroundColor=#ffffff;imageAspect=0;aspect=fixed;image=https://cdn2.iconfinder.com/data/icons/whcompare-isometric-web-hosting-servers/50/laptop-with-code-128.png;fontSize=13;fontColor=#000000;" vertex="1" parent="1">
          <mxGeometry x="832.9399999999999" y="190" width="50" height="50" as="geometry" />
        </mxCell>
        <mxCell id="4ckXwX8KJy1ztd9NH9M3-46" value="" style="points=[];aspect=fixed;html=1;align=center;shadow=0;dashed=0;image;image=img/lib/allied_telesis/computer_and_terminals/VOIP_IP_phone.svg;" vertex="1" parent="1">
          <mxGeometry x="228.03000000000006" y="150" width="19.74" height="30" as="geometry" />
        </mxCell>
        <mxCell id="4ckXwX8KJy1ztd9NH9M3-47" value="" style="points=[];aspect=fixed;html=1;align=center;shadow=0;dashed=0;image;image=img/lib/allied_telesis/computer_and_terminals/VOIP_IP_phone.svg;" vertex="1" parent="1">
          <mxGeometry x="446.93" y="207.5" width="19.74" height="30" as="geometry" />
        </mxCell>
        <mxCell id="4ckXwX8KJy1ztd9NH9M3-48" value="" style="points=[];aspect=fixed;html=1;align=center;shadow=0;dashed=0;image;image=img/lib/allied_telesis/computer_and_terminals/VOIP_IP_phone.svg;" vertex="1" parent="1">
          <mxGeometry x="887.9000000000001" y="200" width="19.74" height="30" as="geometry" />
        </mxCell>
        <mxCell id="4ckXwX8KJy1ztd9NH9M3-49" value="" style="points=[[0,0.5,0],[0.19,0.02,0],[0.59,0,0],[0.985,0.02,0],[1,0.5,0],[0.985,0.98,0],[0.59,1,0],[0.19,0.98,0]];verticalLabelPosition=bottom;sketch=0;html=1;verticalAlign=top;aspect=fixed;align=center;pointerEvents=1;shape=mxgraph.cisco19.camera;fillColor=#005073;strokeColor=none;fontSize=13;fontColor=#000000;" vertex="1" parent="1">
          <mxGeometry x="389.9" y="212.5" width="45" height="25" as="geometry" />
        </mxCell>
        <mxCell id="4ckXwX8KJy1ztd9NH9M3-50" value="" style="points=[[0,0.5,0],[0.19,0.02,0],[0.59,0,0],[0.985,0.02,0],[1,0.5,0],[0.985,0.98,0],[0.59,1,0],[0.19,0.98,0]];verticalLabelPosition=bottom;sketch=0;html=1;verticalAlign=top;aspect=fixed;align=center;pointerEvents=1;shape=mxgraph.cisco19.camera;fillColor=#005073;strokeColor=none;fontSize=13;fontColor=#000000;" vertex="1" parent="1">
          <mxGeometry x="912.9" y="200" width="45" height="25" as="geometry" />
        </mxCell>
        <mxCell id="4ckXwX8KJy1ztd9NH9M3-51" value="" style="points=[[0,0.5,0],[0.19,0.02,0],[0.59,0,0],[0.985,0.02,0],[1,0.5,0],[0.985,0.98,0],[0.59,1,0],[0.19,0.98,0]];verticalLabelPosition=bottom;sketch=0;html=1;verticalAlign=top;aspect=fixed;align=center;pointerEvents=1;shape=mxgraph.cisco19.camera;fillColor=#005073;strokeColor=none;fontSize=13;fontColor=#000000;" vertex="1" parent="1">
          <mxGeometry x="217.9" y="190" width="45" height="25" as="geometry" />
        </mxCell>
        <mxCell id="4ckXwX8KJy1ztd9NH9M3-52" value="" style="points=[[0.015,0.015,0],[0.5,0,0],[0.985,0.015,0],[1,0.22,0],[0.985,0.43,0],[0.73,0.85,0],[0.5,1,0],[0.285,0.85,0],[0.015,0.43,0],[0,0.22,0]];verticalLabelPosition=bottom;sketch=0;html=1;verticalAlign=top;aspect=fixed;align=center;pointerEvents=1;shape=mxgraph.cisco19.surveillance_camera;fillColor=#005073;strokeColor=none;fontSize=13;fontColor=#000000;" vertex="1" parent="1">
          <mxGeometry x="358.65999999999997" y="41.5" width="38.4" height="30" as="geometry" />
        </mxCell>
        <mxCell id="4ckXwX8KJy1ztd9NH9M3-53" value="" style="points=[[0.015,0.015,0],[0.5,0,0],[0.985,0.015,0],[1,0.22,0],[0.985,0.43,0],[0.73,0.85,0],[0.5,1,0],[0.285,0.85,0],[0.015,0.43,0],[0,0.22,0]];verticalLabelPosition=bottom;sketch=0;html=1;verticalAlign=top;aspect=fixed;align=center;pointerEvents=1;shape=mxgraph.cisco19.surveillance_camera;fillColor=#005073;strokeColor=none;fontSize=13;fontColor=#000000;" vertex="1" parent="1">
          <mxGeometry x="943.74" y="45" width="38.4" height="30" as="geometry" />
        </mxCell>
        <mxCell id="4ckXwX8KJy1ztd9NH9M3-55" value="" style="fillColor=#28A8E0;verticalLabelPosition=bottom;sketch=0;html=1;strokeColor=#ffffff;verticalAlign=top;align=center;points=[[0.145,0.145,0],[0.5,0,0],[0.855,0.145,0],[1,0.5,0],[0.855,0.855,0],[0.5,1,0],[0.145,0.855,0],[0,0.5,0]];pointerEvents=1;shape=mxgraph.cisco_safe.compositeIcon;bgIcon=ellipse;resIcon=mxgraph.cisco_safe.capability.wireless_connection;fontSize=13;fontColor=#000000;" vertex="1" parent="1">
          <mxGeometry x="452.9" y="40" width="43" height="43" as="geometry" />
        </mxCell>
        <mxCell id="4ckXwX8KJy1ztd9NH9M3-56" value="" style="fillColor=#28A8E0;verticalLabelPosition=bottom;sketch=0;html=1;strokeColor=#ffffff;verticalAlign=top;align=center;points=[[0.145,0.145,0],[0.5,0,0],[0.855,0.145,0],[1,0.5,0],[0.855,0.855,0],[0.5,1,0],[0.145,0.855,0],[0,0.5,0]];pointerEvents=1;shape=mxgraph.cisco_safe.compositeIcon;bgIcon=ellipse;resIcon=mxgraph.cisco_safe.capability.wireless_connection;fontSize=13;fontColor=#000000;" vertex="1" parent="1">
          <mxGeometry x="827.67" y="47" width="43" height="43" as="geometry" />
        </mxCell>
        <mxCell id="4ckXwX8KJy1ztd9NH9M3-61" value="" style="shape=image;html=1;verticalAlign=top;verticalLabelPosition=bottom;labelBackgroundColor=#ffffff;imageAspect=0;aspect=fixed;image=https://cdn0.iconfinder.com/data/icons/iphone-7-airpods-icons-solid-style/24/apple-tv-box-128.png;fontSize=13;fontColor=#000000;" vertex="1" parent="1">
          <mxGeometry x="337.9" y="204.75" width="39.25" height="39.25" as="geometry" />
        </mxCell>
        <mxCell id="4ckXwX8KJy1ztd9NH9M3-62" value="" style="shape=image;html=1;verticalAlign=top;verticalLabelPosition=bottom;labelBackgroundColor=#ffffff;imageAspect=0;aspect=fixed;image=https://cdn0.iconfinder.com/data/icons/iphone-7-airpods-icons-solid-style/24/apple-tv-box-128.png;fontSize=13;fontColor=#000000;" vertex="1" parent="1">
          <mxGeometry x="223.9" y="222" width="40" height="40" as="geometry" />
        </mxCell>
        <mxCell id="4ckXwX8KJy1ztd9NH9M3-63" value="" style="shape=image;html=1;verticalAlign=top;verticalLabelPosition=bottom;labelBackgroundColor=#ffffff;imageAspect=0;aspect=fixed;image=https://cdn0.iconfinder.com/data/icons/iphone-7-airpods-icons-solid-style/24/apple-tv-box-128.png;fontSize=13;fontColor=#000000;" vertex="1" parent="1">
          <mxGeometry x="973.9" y="194.75" width="34.25" height="34.25" as="geometry" />
        </mxCell>
        <mxCell id="4ckXwX8KJy1ztd9NH9M3-65" style="edgeStyle=orthogonalEdgeStyle;rounded=0;orthogonalLoop=1;jettySize=auto;html=1;exitX=0;exitY=1;exitDx=0;exitDy=0;labelBorderColor=#FF1C42;fontSize=13;fontColor=#000000;strokeColor=#FF0000;strokeWidth=1;entryX=0.655;entryY=-0.037;entryDx=0;entryDy=0;entryPerimeter=0;" edge="1" parent="1" source="4ckXwX8KJy1ztd9NH9M3-64" target="4ckXwX8KJy1ztd9NH9M3-39">
          <mxGeometry relative="1" as="geometry">
            <Array as="points">
              <mxPoint x="371" y="-300" />
              <mxPoint x="855" y="-300" />
            </Array>
          </mxGeometry>
        </mxCell>
        <mxCell id="4ckXwX8KJy1ztd9NH9M3-108" style="edgeStyle=orthogonalEdgeStyle;rounded=0;orthogonalLoop=1;jettySize=auto;html=1;labelBorderColor=#FF1C42;fontSize=13;fontColor=#000000;strokeColor=#00FF00;strokeWidth=1;exitX=0.25;exitY=1;exitDx=0;exitDy=0;" edge="1" parent="1" source="4ckXwX8KJy1ztd9NH9M3-64">
          <mxGeometry relative="1" as="geometry">
            <mxPoint x="200" y="115" as="targetPoint" />
            <Array as="points">
              <mxPoint x="371" y="-100" />
              <mxPoint x="160" y="-100" />
              <mxPoint x="160" y="115" />
            </Array>
          </mxGeometry>
        </mxCell>
        <mxCell id="4ckXwX8KJy1ztd9NH9M3-111" style="edgeStyle=orthogonalEdgeStyle;rounded=0;orthogonalLoop=1;jettySize=auto;html=1;exitX=0.75;exitY=1;exitDx=0;exitDy=0;labelBorderColor=#FF1C42;fontSize=13;fontColor=#000000;strokeColor=#FF0000;strokeWidth=1;entryX=-0.276;entryY=0.571;entryDx=0;entryDy=0;entryPerimeter=0;" edge="1" parent="1" source="4ckXwX8KJy1ztd9NH9M3-64" target="4ckXwX8KJy1ztd9NH9M3-46">
          <mxGeometry relative="1" as="geometry">
            <mxPoint x="120" y="200" as="targetPoint" />
            <Array as="points">
              <mxPoint x="140" y="-112" />
              <mxPoint x="140" y="167" />
            </Array>
          </mxGeometry>
        </mxCell>
        <mxCell id="4ckXwX8KJy1ztd9NH9M3-112" style="edgeStyle=orthogonalEdgeStyle;rounded=0;orthogonalLoop=1;jettySize=auto;html=1;exitX=0.5;exitY=1;exitDx=0;exitDy=0;labelBorderColor=#FF1C42;fontSize=13;fontColor=#000000;strokeColor=#00FF00;strokeWidth=1;entryX=0;entryY=0.5;entryDx=0;entryDy=0;entryPerimeter=0;" edge="1" parent="1" source="4ckXwX8KJy1ztd9NH9M3-64" target="4ckXwX8KJy1ztd9NH9M3-51">
          <mxGeometry relative="1" as="geometry">
            <mxPoint x="150" y="200" as="targetPoint" />
            <Array as="points">
              <mxPoint x="371" y="-120" />
              <mxPoint x="120" y="-120" />
              <mxPoint x="120" y="203" />
            </Array>
          </mxGeometry>
        </mxCell>
        <mxCell id="4ckXwX8KJy1ztd9NH9M3-113" style="edgeStyle=orthogonalEdgeStyle;rounded=0;orthogonalLoop=1;jettySize=auto;html=1;exitX=0.5;exitY=1;exitDx=0;exitDy=0;labelBorderColor=#FF1C42;fontSize=13;fontColor=#000000;strokeColor=#00FF00;strokeWidth=1;entryX=0;entryY=0.75;entryDx=0;entryDy=0;" edge="1" parent="1" source="4ckXwX8KJy1ztd9NH9M3-64" target="4ckXwX8KJy1ztd9NH9M3-62">
          <mxGeometry relative="1" as="geometry">
            <mxPoint x="70" y="240" as="targetPoint" />
            <Array as="points">
              <mxPoint x="100" y="-132" />
              <mxPoint x="100" y="252" />
            </Array>
          </mxGeometry>
        </mxCell>
        <mxCell id="4ckXwX8KJy1ztd9NH9M3-114" style="edgeStyle=orthogonalEdgeStyle;rounded=0;orthogonalLoop=1;jettySize=auto;html=1;exitX=0.25;exitY=1;exitDx=0;exitDy=0;labelBorderColor=#FF1C42;fontSize=13;fontColor=#000000;strokeColor=#00FF00;strokeWidth=1;entryX=0.5;entryY=1;entryDx=0;entryDy=0;" edge="1" parent="1" source="4ckXwX8KJy1ztd9NH9M3-64" target="4ckXwX8KJy1ztd9NH9M3-61">
          <mxGeometry relative="1" as="geometry">
            <mxPoint x="60" y="340" as="targetPoint" />
            <Array as="points">
              <mxPoint x="80" y="-153" />
              <mxPoint x="80" y="340" />
              <mxPoint x="358" y="340" />
            </Array>
          </mxGeometry>
        </mxCell>
        <mxCell id="4ckXwX8KJy1ztd9NH9M3-64" value="&lt;div style=&quot;text-align: center ; font-size: 11px&quot;&gt;&lt;font style=&quot;font-size: 11px&quot;&gt;KAT KABİN&lt;/font&gt;&lt;/div&gt;&lt;font style=&quot;font-size: 11px&quot;&gt;&lt;div style=&quot;text-align: center&quot;&gt;KENAR SWİTCH&lt;/div&gt;&lt;/font&gt;" style="rounded=0;whiteSpace=wrap;html=1;rotation=90;align=right;fillColor=#d5e8d4;strokeColor=#82b366;" vertex="1" parent="1">
          <mxGeometry x="354.33" y="-155.05" width="87.87" height="54.72" as="geometry" />
        </mxCell>
        <mxCell id="4ckXwX8KJy1ztd9NH9M3-66" style="edgeStyle=orthogonalEdgeStyle;rounded=0;orthogonalLoop=1;jettySize=auto;html=1;labelBorderColor=#FF1C42;fontSize=13;fontColor=#000000;strokeColor=#00FF00;strokeWidth=1;exitX=-0.004;exitY=0.09;exitDx=0;exitDy=0;exitPerimeter=0;" edge="1" parent="1" source="4ckXwX8KJy1ztd9NH9M3-64" target="4ckXwX8KJy1ztd9NH9M3-34">
          <mxGeometry relative="1" as="geometry">
            <mxPoint x="382" y="-172" as="sourcePoint" />
            <mxPoint x="812.77" y="-180" as="targetPoint" />
            <Array as="points">
              <mxPoint x="421" y="-210" />
              <mxPoint x="490" y="-210" />
            </Array>
          </mxGeometry>
        </mxCell>
        <mxCell id="4ckXwX8KJy1ztd9NH9M3-67" style="edgeStyle=orthogonalEdgeStyle;rounded=0;orthogonalLoop=1;jettySize=auto;html=1;labelBorderColor=#FF1C42;fontSize=13;fontColor=#000000;strokeColor=#00FF00;strokeWidth=1;exitX=-0.003;exitY=0.026;exitDx=0;exitDy=0;exitPerimeter=0;" edge="1" parent="1" source="4ckXwX8KJy1ztd9NH9M3-64" target="4ckXwX8KJy1ztd9NH9M3-28">
          <mxGeometry relative="1" as="geometry">
            <mxPoint x="380" y="-174" as="sourcePoint" />
            <mxPoint x="767.4" y="-180" as="targetPoint" />
            <Array as="points">
              <mxPoint x="424" y="-200" />
              <mxPoint x="460" y="-200" />
            </Array>
          </mxGeometry>
        </mxCell>
        <mxCell id="4ckXwX8KJy1ztd9NH9M3-85" value="5 ayrı kablo(kamera)" style="text;html=1;align=center;verticalAlign=middle;resizable=0;points=[];autosize=1;strokeColor=none;fillColor=none;fontSize=13;fontColor=#000000;" vertex="1" parent="1">
          <mxGeometry x="561.31" y="-1050" width="130" height="20" as="geometry" />
        </mxCell>
        <mxCell id="4ckXwX8KJy1ztd9NH9M3-89" value="" style="endArrow=none;html=1;rounded=0;labelBorderColor=#FF1C42;fontSize=13;fontColor=#000000;strokeColor=#FF8000;strokeWidth=1;dashed=1;" edge="1" parent="1">
          <mxGeometry width="50" height="50" relative="1" as="geometry">
            <mxPoint x="439.9999999999998" y="-890" as="sourcePoint" />
            <mxPoint x="440.56839151646864" y="-890.0391957582344" as="targetPoint" />
          </mxGeometry>
        </mxCell>
        <mxCell id="4ckXwX8KJy1ztd9NH9M3-92" value="" style="endArrow=none;html=1;rounded=0;labelBorderColor=#FF1C42;fontSize=13;fontColor=#000000;strokeColor=#FF8000;strokeWidth=1;dashed=1;startArrow=none;" edge="1" parent="1">
          <mxGeometry width="50" height="50" relative="1" as="geometry">
            <mxPoint x="419.9999999999998" y="-840" as="sourcePoint" />
            <mxPoint x="420.6099999999999" y="-840" as="targetPoint" />
          </mxGeometry>
        </mxCell>
        <mxCell id="4ckXwX8KJy1ztd9NH9M3-93" value="2 ayrı kablo (DATA)&amp;nbsp;" style="text;html=1;align=center;verticalAlign=middle;resizable=0;points=[];autosize=1;strokeColor=none;fillColor=none;fontSize=13;fontColor=#000000;" vertex="1" parent="1">
          <mxGeometry x="715.04" y="-1040" width="130" height="20" as="geometry" />
        </mxCell>
        <mxCell id="iSHoY0e52lTv-vvgOU3p-100" style="edgeStyle=orthogonalEdgeStyle;rounded=0;orthogonalLoop=1;jettySize=auto;html=1;exitX=0;exitY=1;exitDx=0;exitDy=0;fontSize=11;fontColor=#FF0F17;labelBorderColor=#FF1C42;fillColor=#f8cecc;strokeColor=#3333FF;strokeWidth=3;entryX=-0.033;entryY=0.243;entryDx=0;entryDy=0;entryPerimeter=0;" parent="1" source="iSHoY0e52lTv-vvgOU3p-96" target="iSHoY0e52lTv-vvgOU3p-77" edge="1">
          <mxGeometry relative="1" as="geometry">
            <mxPoint x="40" y="-1010" as="targetPoint" />
            <Array as="points">
              <mxPoint x="381" y="-940" />
              <mxPoint x="170" y="-940" />
              <mxPoint x="170" y="-719" />
            </Array>
          </mxGeometry>
        </mxCell>
        <mxCell id="4ckXwX8KJy1ztd9NH9M3-94" style="edgeStyle=orthogonalEdgeStyle;rounded=0;orthogonalLoop=1;jettySize=auto;html=1;entryX=0;entryY=0.75;entryDx=0;entryDy=0;dashed=1;labelBorderColor=#FF1C42;fontSize=13;fontColor=#000000;strokeColor=#FF8000;strokeWidth=1;" edge="1" parent="1" target="iSHoY0e52lTv-vvgOU3p-96">
          <mxGeometry relative="1" as="geometry">
            <mxPoint x="394" y="-935" as="sourcePoint" />
          </mxGeometry>
        </mxCell>
        <mxCell id="4ckXwX8KJy1ztd9NH9M3-115" style="edgeStyle=orthogonalEdgeStyle;rounded=0;orthogonalLoop=1;jettySize=auto;html=1;labelBorderColor=#FF1C42;fontSize=13;fontColor=#000000;strokeColor=#00FF00;strokeWidth=1;entryX=0.59;entryY=1;entryDx=0;entryDy=0;entryPerimeter=0;" edge="1" parent="1" target="4ckXwX8KJy1ztd9NH9M3-49">
          <mxGeometry relative="1" as="geometry">
            <mxPoint x="367.5250000000003" y="254" as="targetPoint" />
            <mxPoint x="370" y="-143" as="sourcePoint" />
            <Array as="points">
              <mxPoint x="90" y="-143" />
              <mxPoint x="90" y="350" />
              <mxPoint x="416" y="350" />
            </Array>
          </mxGeometry>
        </mxCell>
        <mxCell id="4ckXwX8KJy1ztd9NH9M3-116" style="edgeStyle=orthogonalEdgeStyle;rounded=0;orthogonalLoop=1;jettySize=auto;html=1;labelBorderColor=#FF1C42;fontSize=13;fontColor=#000000;strokeColor=#FF0000;strokeWidth=1;" edge="1" parent="1">
          <mxGeometry relative="1" as="geometry">
            <mxPoint x="460" y="240" as="targetPoint" />
            <mxPoint x="370" y="-133" as="sourcePoint" />
            <Array as="points">
              <mxPoint x="100" y="-133" />
              <mxPoint x="100" y="360" />
              <mxPoint x="460" y="360" />
              <mxPoint x="460" y="247" />
            </Array>
          </mxGeometry>
        </mxCell>
        <mxCell id="4ckXwX8KJy1ztd9NH9M3-118" style="edgeStyle=orthogonalEdgeStyle;rounded=0;orthogonalLoop=1;jettySize=auto;html=1;labelBorderColor=#FF1C42;fontSize=13;fontColor=#000000;strokeColor=#00FF00;strokeWidth=1;entryX=0.5;entryY=1;entryDx=0;entryDy=0;" edge="1" parent="1" target="4ckXwX8KJy1ztd9NH9M3-43">
          <mxGeometry relative="1" as="geometry">
            <mxPoint x="499" y="280" as="targetPoint" />
            <mxPoint x="370" y="-123" as="sourcePoint" />
            <Array as="points">
              <mxPoint x="110" y="-123" />
              <mxPoint x="110" y="370" />
              <mxPoint x="499" y="370" />
            </Array>
          </mxGeometry>
        </mxCell>
        <mxCell id="4ckXwX8KJy1ztd9NH9M3-119" style="edgeStyle=orthogonalEdgeStyle;rounded=0;orthogonalLoop=1;jettySize=auto;html=1;labelBorderColor=#FF1C42;fontSize=13;fontColor=#000000;strokeColor=#00FF00;strokeWidth=1;entryX=0.5;entryY=1;entryDx=0;entryDy=0;" edge="1" parent="1" target="4ckXwX8KJy1ztd9NH9M3-45">
          <mxGeometry relative="1" as="geometry">
            <mxPoint x="509.0999999999999" y="260" as="targetPoint" />
            <mxPoint x="380" y="-113" as="sourcePoint" />
            <Array as="points">
              <mxPoint x="120" y="-113" />
              <mxPoint x="120" y="380" />
              <mxPoint x="858" y="380" />
            </Array>
          </mxGeometry>
        </mxCell>
        <mxCell id="4ckXwX8KJy1ztd9NH9M3-120" style="edgeStyle=orthogonalEdgeStyle;rounded=0;orthogonalLoop=1;jettySize=auto;html=1;labelBorderColor=#FF1C42;fontSize=13;fontColor=#000000;strokeColor=#FF0000;strokeWidth=1;" edge="1" parent="1" target="4ckXwX8KJy1ztd9NH9M3-48">
          <mxGeometry relative="1" as="geometry">
            <mxPoint x="867.94" y="250" as="targetPoint" />
            <mxPoint x="370" y="-103" as="sourcePoint" />
            <Array as="points">
              <mxPoint x="130" y="-103" />
              <mxPoint x="130" y="390" />
              <mxPoint x="898" y="390" />
            </Array>
          </mxGeometry>
        </mxCell>
        <mxCell id="4ckXwX8KJy1ztd9NH9M3-121" style="edgeStyle=orthogonalEdgeStyle;rounded=0;orthogonalLoop=1;jettySize=auto;html=1;labelBorderColor=#FF1C42;fontSize=13;fontColor=#000000;strokeColor=#00FF00;strokeWidth=1;entryX=0.59;entryY=1;entryDx=0;entryDy=0;entryPerimeter=0;" edge="1" parent="1" target="4ckXwX8KJy1ztd9NH9M3-50">
          <mxGeometry relative="1" as="geometry">
            <mxPoint x="908" y="240" as="targetPoint" />
            <mxPoint x="370" y="-93" as="sourcePoint" />
            <Array as="points">
              <mxPoint x="140" y="-93" />
              <mxPoint x="140" y="400" />
              <mxPoint x="939" y="400" />
            </Array>
          </mxGeometry>
        </mxCell>
        <mxCell id="4ckXwX8KJy1ztd9NH9M3-122" style="edgeStyle=orthogonalEdgeStyle;rounded=0;orthogonalLoop=1;jettySize=auto;html=1;labelBorderColor=#FF1C42;fontSize=13;fontColor=#000000;strokeColor=#00FF00;strokeWidth=1;entryX=0.5;entryY=1;entryDx=0;entryDy=0;" edge="1" parent="1" target="4ckXwX8KJy1ztd9NH9M3-63">
          <mxGeometry relative="1" as="geometry">
            <mxPoint x="949.4500000000003" y="235" as="targetPoint" />
            <mxPoint x="370" y="-160" as="sourcePoint" />
            <Array as="points">
              <mxPoint x="150" y="-160" />
              <mxPoint x="150" y="410" />
              <mxPoint x="991" y="410" />
            </Array>
          </mxGeometry>
        </mxCell>
        <mxCell id="4ckXwX8KJy1ztd9NH9M3-129" style="edgeStyle=orthogonalEdgeStyle;rounded=0;orthogonalLoop=1;jettySize=auto;html=1;exitX=0.004;exitY=0.788;exitDx=0;exitDy=0;labelBorderColor=#FF1C42;fontSize=13;fontColor=#000000;strokeColor=#FF0000;strokeWidth=1;exitPerimeter=0;" edge="1" parent="1" source="4ckXwX8KJy1ztd9NH9M3-64" target="4ckXwX8KJy1ztd9NH9M3-37">
          <mxGeometry relative="1" as="geometry">
            <mxPoint x="193.39500000000012" y="-183.72499999999988" as="sourcePoint" />
            <mxPoint x="677.82" y="-171.1" as="targetPoint" />
            <Array as="points">
              <mxPoint x="383" y="-280" />
              <mxPoint x="540" y="-280" />
            </Array>
          </mxGeometry>
        </mxCell>
        <mxCell id="4ckXwX8KJy1ztd9NH9M3-130" style="edgeStyle=orthogonalEdgeStyle;rounded=0;orthogonalLoop=1;jettySize=auto;html=1;labelBorderColor=#FF1C42;fontSize=13;fontColor=#000000;strokeColor=#FF0000;strokeWidth=1;exitX=-0.005;exitY=0.893;exitDx=0;exitDy=0;exitPerimeter=0;" edge="1" parent="1" source="4ckXwX8KJy1ztd9NH9M3-64">
          <mxGeometry relative="1" as="geometry">
            <mxPoint x="389.9" y="-173" as="sourcePoint" />
            <mxPoint x="678" y="-172" as="targetPoint" />
            <Array as="points">
              <mxPoint x="377" y="-290" />
              <mxPoint x="678" y="-290" />
            </Array>
          </mxGeometry>
        </mxCell>
        <mxCell id="4ckXwX8KJy1ztd9NH9M3-131" style="edgeStyle=orthogonalEdgeStyle;rounded=0;orthogonalLoop=1;jettySize=auto;html=1;labelBorderColor=#FF1C42;fontSize=13;fontColor=#000000;strokeColor=#00FF00;strokeWidth=1;exitX=-0.002;exitY=0.167;exitDx=0;exitDy=0;exitPerimeter=0;" edge="1" parent="1" source="4ckXwX8KJy1ztd9NH9M3-64" target="4ckXwX8KJy1ztd9NH9M3-29">
          <mxGeometry relative="1" as="geometry">
            <mxPoint x="414.99820000000005" y="-212.0643500000001" as="sourcePoint" />
            <mxPoint x="482.93" y="-210" as="targetPoint" />
            <Array as="points">
              <mxPoint x="417" y="-220" />
              <mxPoint x="594" y="-220" />
            </Array>
          </mxGeometry>
        </mxCell>
        <mxCell id="4ckXwX8KJy1ztd9NH9M3-132" style="edgeStyle=orthogonalEdgeStyle;rounded=0;orthogonalLoop=1;jettySize=auto;html=1;labelBorderColor=#FF1C42;fontSize=13;fontColor=#000000;strokeColor=#00FF00;strokeWidth=1;exitX=0.006;exitY=0.291;exitDx=0;exitDy=0;exitPerimeter=0;" edge="1" parent="1" source="4ckXwX8KJy1ztd9NH9M3-64" target="4ckXwX8KJy1ztd9NH9M3-35">
          <mxGeometry relative="1" as="geometry">
            <mxPoint x="466.6669199999999" y="-191.1856499999999" as="sourcePoint" />
            <mxPoint x="641.28" y="-190" as="targetPoint" />
            <Array as="points">
              <mxPoint x="410" y="-230" />
              <mxPoint x="641" y="-230" />
            </Array>
          </mxGeometry>
        </mxCell>
        <mxCell id="4ckXwX8KJy1ztd9NH9M3-133" style="edgeStyle=orthogonalEdgeStyle;rounded=0;orthogonalLoop=1;jettySize=auto;html=1;labelBorderColor=#FF1C42;fontSize=13;fontColor=#000000;strokeColor=#00FF00;strokeWidth=1;exitX=0.003;exitY=0.45;exitDx=0;exitDy=0;exitPerimeter=0;" edge="1" parent="1" source="4ckXwX8KJy1ztd9NH9M3-64" target="4ckXwX8KJy1ztd9NH9M3-30">
          <mxGeometry relative="1" as="geometry">
            <mxPoint x="549.20628" y="-211.655" as="sourcePoint" />
            <mxPoint x="775.58" y="-210.03" as="targetPoint" />
            <Array as="points">
              <mxPoint x="401" y="-250" />
              <mxPoint x="764" y="-250" />
            </Array>
          </mxGeometry>
        </mxCell>
        <mxCell id="4ckXwX8KJy1ztd9NH9M3-134" style="edgeStyle=orthogonalEdgeStyle;rounded=0;orthogonalLoop=1;jettySize=auto;html=1;labelBorderColor=#FF1C42;fontSize=13;fontColor=#000000;strokeColor=#00FF00;strokeWidth=1;exitX=0.009;exitY=0.601;exitDx=0;exitDy=0;exitPerimeter=0;" edge="1" parent="1" source="4ckXwX8KJy1ztd9NH9M3-64" target="4ckXwX8KJy1ztd9NH9M3-36">
          <mxGeometry relative="1" as="geometry">
            <mxPoint x="463.97772000000003" y="-190.83417000000009" as="sourcePoint" />
            <mxPoint x="821.8293103448277" y="-190" as="targetPoint" />
            <Array as="points">
              <mxPoint x="390" y="-171" />
              <mxPoint x="390" y="-270" />
              <mxPoint x="822" y="-270" />
            </Array>
          </mxGeometry>
        </mxCell>
        <mxCell id="4ckXwX8KJy1ztd9NH9M3-139" style="edgeStyle=orthogonalEdgeStyle;rounded=0;orthogonalLoop=1;jettySize=auto;html=1;exitX=1.002;exitY=0.865;exitDx=0;exitDy=0;labelBorderColor=#FF1C42;fontSize=11;fontColor=#FF0F17;strokeColor=#FF0000;strokeWidth=1;exitPerimeter=0;" edge="1" parent="1" source="iSHoY0e52lTv-vvgOU3p-96">
          <mxGeometry relative="1" as="geometry">
            <mxPoint x="410" y="-720" as="targetPoint" />
            <Array as="points">
              <mxPoint x="388" y="-720" />
              <mxPoint x="410" y="-720" />
            </Array>
            <mxPoint x="402.905" y="-811.195" as="sourcePoint" />
          </mxGeometry>
        </mxCell>
      </root>
    </mxGraphModel>
  </diagram>
</mxfile>
